<svg width="128" height="128" viewBox="0 0 128 128" fill="none" xmlns="http://www.w3.org/2000/svg">
<g clip-path="url(#clip0_227_3555)">
<path d="M903.683 86.4838V90.5396H899.35V98.941H903.52V100.89H901.72V107H907.88V105.304H909.759V107H914.134V105.304H916.013V107L922.215 107V100.869H920.368V98.9989H924.358V90.4606H920.357V86.31H905.737V82.1699H903.652V79.984H907.859V77.8138H909.959V76.1862H909.975V75.7543L928.707 75.7543V73.7633H932.872V71.688H934.904V57.1555H934.914V55.1223L932.845 55.1223V53.0259H930.534V50.9664H928.697V42.7126H930.776V40.8954L934.809 40.8954V42.7495H940.889V44.8985H939.169V46.9844H937.147V57.1608H938.757V59.2414H941.206V65.6517H943.022V69.6232H945.054V76.0335H941.28V78.0719H936.662V80.0893H930.671V84.182H932.925V86.5892H935.009V88.675H936.635V90.429H943.302V88.675H945.355V86.5786H949.424V84.4243H953.726V86.5523H955.399V90.5502H953.726V92.5149H953.309V92.5307H951.71V94.6481H949.224V96.7603H947.107V98.8778H945.444V101.148H947.06V102.87H951.303V104.935H955.573V102.902L967.893 102.902V104.935H972.163V102.865H976.406V101.143H978.021V98.8725H976.359V96.755H974.242V94.6428H971.756V92.5254H970.157V92.5096H969.74V90.5449H968.067V86.547H969.74V84.419H974.042V86.5733H978.111V88.6697H980.164V90.429H986.831V88.675L988.456 88.675V86.5891H990.541V84.182H992.795V80.0893H986.804V78.0719H982.186V76.0335H978.412V69.6232H980.444V65.6516H982.26V59.2414H984.709V57.1608H986.319V46.9844H984.297V44.8985H982.576V42.7442L988.657 42.7442V40.8954H992.689V42.7126H994.769V50.9664H992.932V53.0259H990.62V55.1223H988.551V57.1555H988.562V71.688H990.594V73.7633H994.758V75.7543H1013.49V76.1862H1013.5V77.8138H1015.6V79.984H1019.81V82.1699H1017.72V86.31H1003.1V90.4606L999.102 90.4606V98.9989H1003.09V100.869H1001.25V107H1007.45V105.304H1009.33V107H1013.7V105.304H1015.58V107H1021.74V100.89H1019.94V98.9462H1024.11V90.5449H1019.78V86.4891H1026V82.1277H1024.12V82.1172H1024.11V73.8265H1017.92V69.6601H1015.84V67.8744H1015.86V67.6479H1003.35V67.5689H1003.34V65.7939H1003.35V65.7833H1005.4V61.3799L997.044 61.3799V55.47H998.918V57.1713H1007.51V55.1381H1005.09V53.0575H1003.3V49.1808H1005.09V42.8074H1003.3V38.7884H1005.09V34.5167H994.964V30.345L992.842 30.345V28.2486L986.741 28.2486V24.3666L982.27 24.3666V34.5167L978.322 34.5167V36.613H976.353V30.4872H978.053V26.1575L976.401 26.1575V24.3666L973.962 24.3666V20L949.498 20V24.3666L947.06 24.3666V26.1575H945.408V30.4872H947.107V36.613H945.138V34.5167H941.19V24.3666L936.72 24.3666V28.2486H930.618V30.345H928.496V34.5167L918.373 34.5167V38.7884H920.157V42.8074H918.373V49.1808H920.157V53.0575H918.373V55.1381H915.95V57.1713H924.543V55.47H926.417V61.3799H918.061V65.7833H920.109V65.7939H920.12V67.569H920.109V67.648H907.6V67.8692H907.616V69.6495H905.541V73.8212H899.35V82.112H899.34V82.1225H897.461V86.4838H903.683ZM963.849 63.3972H967.956V61.3167H971.724V59.2414H973.862V50.9296H972.126V47.0212H965.945V45.0407H973.952V47.0107H976.005V48.9912H980.228V59.2993H978.09V61.3325H974.321V63.4078H971.841V73.8212H968.035V71.9935H970.12V67.6796H967.977V65.5463H963.849V63.3972ZM943.228 48.9859H947.45V47.0054H949.503V45.0355H957.51V47.016H951.33V50.919H949.593V59.2361H951.731V61.3114H955.499V63.392H959.606V65.5358H955.478V67.669H953.335V71.9829H955.42V73.8107H951.615V63.3972H949.134V61.3219L945.365 61.3219V59.2888H943.228V48.9807V48.9859Z" fill="#E95A32"/>
<path d="M775.695 86.4838V90.5396L771.381 90.5396V98.941H775.532V100.89H773.74V107H779.872V105.304H781.743V107H786.099V105.304H787.969V107H794.143V100.869H792.304V98.9989H796.276V90.4606H792.294V86.31L777.739 86.31V82.1699H775.663V79.984H779.851V77.8139H781.942V76.1863H781.958V75.7543H800.606V73.7633H804.752V71.688H806.775V57.1555H806.785V55.1223H804.725V53.026H802.424V50.9664H800.596V42.7126H802.666V40.8954H806.68V42.7495H812.733V44.8985H811.02V46.9844H809.008V57.1608H810.61V59.2414H813.049V65.6517H814.856V69.6232H816.879V76.0335L813.122 76.0335V78.0719H808.524V80.0893H802.561V84.182H804.804V86.5892H806.88V88.675H808.498V90.429H815.135V88.675H817.179V86.5786H821.23V84.4243H825.512V86.5523H827.178V90.5502H825.512V92.5149H825.097V92.5307H823.505V94.6481H821.03V96.7603H818.923V98.8778H817.268V101.148H818.876V102.87H823.1V104.935H827.351V102.902H839.615V104.935H843.866V102.865H848.09V101.143H849.698V98.8725H848.043V96.755H845.936V94.6429H843.461V92.5254H841.869V92.5096H841.454V90.5449H839.788V86.547L841.454 86.547V84.419H845.736V86.5734H849.787V88.6697H851.831V90.429H858.468V88.675H860.086V86.5892H862.161V84.182H864.405V80.0893H858.441V78.0719H853.844V76.0335H850.087V69.6232H852.11V65.6517H853.917V59.2414H856.355V57.1608H857.958V46.9844H855.945V44.8985H854.233V42.7442H860.286V40.8954H864.3V42.7126H866.37V50.9664H864.542V53.0259H862.24V55.1223H860.181V57.1555H860.191V71.688H862.214V73.7633H866.36V75.7543L885.002 75.7543V76.1862H885.018V77.8138H887.109V79.984H891.297V82.1699H889.222V86.31H874.667V90.4606H870.684V98.9989H874.656V100.869H872.817V107H878.991V105.304H880.862V107H885.218V105.304H887.088V107H893.22V100.89H891.428V98.9462H895.574V90.5449H891.266V86.4891L897.461 86.4891V82.1278H895.59V82.1172H895.579V73.8265H889.416V69.6601H887.351V67.8745H887.367V67.648H874.914V67.569H874.903V65.7939H874.914V65.7833H876.953V61.3799H868.635V55.47H870.5V57.1713H879.054V55.1381H876.643V53.0576H874.867V49.1808H876.643V42.8074H874.867V38.7885H876.643V34.5167L866.565 34.5167V30.345H864.452V28.2486L858.378 28.2486V24.3666L853.928 24.3666V34.5167H849.997V36.6131H848.038V30.4872H849.729V26.1575H848.085V24.3666H845.657V20L821.303 20V24.3666H818.876V26.1575H817.231V30.4872H818.923V36.6131H816.963V34.5167H813.033V24.3666L808.582 24.3666V28.2486L802.508 28.2486V30.345H800.396V34.5167L790.318 34.5167V38.7885H792.094V42.8074H790.318V49.1808H792.094V53.0576H790.318V55.1381H787.906V57.1713H796.46V55.47H798.326V61.3799H790.008V65.7833H792.047V65.7939H792.057V67.569H792.047V67.648L779.594 67.648V67.8692H779.609V69.6495H777.544V73.8212H771.381V82.112H771.371V82.1225H769.5V86.4838H775.695ZM835.59 63.3973H839.678V61.3167L843.429 61.3167V59.2414H845.557V50.9296H843.829V47.0212H837.676V45.0407H845.647V47.0107H847.691V48.9912H851.894V59.2993H849.766V61.3325H846.015V63.4078H843.545V73.8212H839.757V71.9935L841.832 71.9935V67.6796L839.699 67.6796V65.5463H835.59V63.3973ZM815.061 48.9859H819.264V47.0054H821.308V45.0355L829.279 45.0355V47.016L823.126 47.016V50.919H821.398V59.2361H823.526V61.3114H827.277V63.392H831.365V65.5358H827.256V67.669H825.123V71.9829H827.199V73.8107H823.41V63.3973H820.941V61.3219H817.189V59.2888H815.061V48.9807V48.9859Z" fill="#E95A32"/>
<path d="M903.683 86.4838V90.5396H899.35V98.941H903.52V100.89H901.72V107H907.88V105.304H909.759V107H914.134V105.304H916.013V107L922.215 107V100.869H920.368V98.9989H924.358V90.4606H920.357V86.31H905.737V82.1699H903.652V79.984H907.859V77.8138H909.959V76.1862H909.975V75.7543L928.707 75.7543V73.7633H932.872V71.688H934.904V57.1555H934.914V55.1223L932.845 55.1223V53.0259H930.534V50.9664H928.697V42.7126H930.776V40.8954L934.809 40.8954V42.7495H940.889V44.8985H939.169V46.9844H937.147V57.1608H938.757V59.2414H941.206V65.6517H943.022V69.6232H945.054V76.0335H941.28V78.0719H936.662V80.0893H930.671V84.182H932.925V86.5892H935.009V88.675H936.635V90.429H943.302V88.675H945.355V86.5786H949.424V84.4243H953.726V86.5523H955.399V90.5502H953.726V92.5149H953.309V92.5307H951.71V94.6481H949.224V96.7603H947.107V98.8778H945.444V101.148H947.06V102.87H951.303V104.935H955.573V102.902L967.893 102.902V104.935H972.163V102.865H976.406V101.143H978.021V98.8725H976.359V96.755H974.242V94.6428H971.756V92.5254H970.157V92.5096H969.74V90.5449H968.067V86.547H969.74V84.419H974.042V86.5733H978.111V88.6697H980.164V90.429H986.831V88.675L988.456 88.675V86.5891H990.541V84.182H992.795V80.0893H986.804V78.0719H982.186V76.0335H978.412V69.6232H980.444V65.6516H982.26V59.2414H984.709V57.1608H986.319V46.9844H984.297V44.8985H982.576V42.7442L988.657 42.7442V40.8954H992.689V42.7126H994.769V50.9664H992.932V53.0259H990.62V55.1223H988.551V57.1555H988.562V71.688H990.594V73.7633H994.758V75.7543H1013.49V76.1862H1013.5V77.8138H1015.6V79.984H1019.81V82.1699H1017.72V86.31H1003.1V90.4606L999.102 90.4606V98.9989H1003.09V100.869H1001.25V107H1007.45V105.304H1009.33V107H1013.7V105.304H1015.58V107H1021.74V100.89H1019.94V98.9462H1024.11V90.5449H1019.78V86.4891H1026V82.1277H1024.12V82.1172H1024.11V73.8265H1017.92V69.6601H1015.84V67.8744H1015.86V67.6479H1003.35V67.5689H1003.34V65.7939H1003.35V65.7833H1005.4V61.3799L997.044 61.3799V55.47H998.918V57.1713H1007.51V55.1381H1005.09V53.0575H1003.3V49.1808H1005.09V42.8074H1003.3V38.7884H1005.09V34.5167H994.964V30.345L992.842 30.345V28.2486L986.741 28.2486V24.3666L982.27 24.3666V34.5167L978.322 34.5167V36.613H976.353V30.4872H978.053V26.1575L976.401 26.1575V24.3666L973.962 24.3666V20L949.498 20V24.3666L947.06 24.3666V26.1575H945.408V30.4872H947.107V36.613H945.138V34.5167H941.19V24.3666L936.72 24.3666V28.2486H930.618V30.345H928.496V34.5167L918.373 34.5167V38.7884H920.157V42.8074H918.373V49.1808H920.157V53.0575H918.373V55.1381H915.95V57.1713H924.543V55.47H926.417V61.3799H918.061V65.7833H920.109V65.7939H920.12V67.569H920.109V67.648H907.6V67.8692H907.616V69.6495H905.541V73.8212H899.35V82.112H899.34V82.1225H897.461V86.4838H903.683ZM963.849 63.3972H967.956V61.3167H971.724V59.2414H973.862V50.9296H972.126V47.0212H965.945V45.0407H973.952V47.0107H976.005V48.9912H980.228V59.2993H978.09V61.3325H974.321V63.4078H971.841V73.8212H968.035V71.9935H970.12V67.6796H967.977V65.5463H963.849V63.3972ZM943.228 48.9859H947.45V47.0054H949.503V45.0355H957.51V47.016H951.33V50.919H949.593V59.2361H951.731V61.3114H955.499V63.392H959.606V65.5358H955.478V67.669H953.335V71.9829H955.42V73.8107H951.615V63.3972H949.134V61.3219L945.365 61.3219V59.2888H943.228V48.9807V48.9859Z" fill="#E95A32"/>
<path d="M647.183 86.4838V90.5397H642.85V98.941H647.02V100.89H645.22V107H651.38V105.304H653.259V107H657.634V105.304H659.513V107H665.715V100.869H663.868V98.9989H667.858V90.4606H663.857V86.31H649.237V82.1699H647.152V79.984H651.358V77.8139H653.459V76.1863H653.475V75.7544L672.207 75.7543V73.7633H676.372V71.688H678.404V57.1555H678.414V55.1224H676.345V53.026H674.034V50.9665H672.197V42.7126H674.276V40.8954H678.309V42.7495H684.389V44.8985H682.669V46.9844H680.647V57.1608H682.257V59.2414H684.706V65.6517H686.522V69.6232H688.554V76.0335H684.78V78.072L680.162 78.072V80.0893H674.171V84.182H676.425V86.5892H678.509V88.675H680.135V90.429L686.801 90.429V88.675H688.855V86.5786H692.924V84.4243H697.226V86.5523H698.899V90.5502H697.226V92.5149H696.809V92.5307H695.21V94.6481H692.724V96.7603H690.607V98.8778H688.944V101.148H690.56V102.87H694.803V104.935L699.073 104.935V102.902H711.393V104.935H715.663V102.865H719.906V101.143H721.521V98.8725H719.859V96.7551H717.742V94.6429H715.256V92.5254H713.657V92.5096H713.24V90.5449H711.567V86.547H713.24V84.419H717.542V86.5734H721.611V88.6698H723.664V90.429H730.331V88.675H731.956V86.5892H734.041V84.182H736.295V80.0893L730.304 80.0893V78.072H725.686V76.0335H721.912V69.6232H723.944V65.6517H725.76V59.2414H728.209V57.1608H729.819V46.9844H727.797V44.8985H726.076V42.7442H732.157V40.8954H736.189V42.7126H738.269V50.9665H736.432V53.026H734.12V55.1223H732.051V57.1555H732.062V71.688L734.094 71.688V73.7633H738.258V75.7543H756.985V76.1863H757.001V77.8139H759.102V79.984H763.309V82.1699H761.224V86.31H746.603V90.4606H742.602V98.9989H746.593V100.869H744.745V107H750.947V105.304H752.826V107H757.202V105.304H759.081V107H765.241V100.89H763.441V98.9462H767.605V90.5449H763.277V86.4891H769.5V82.1278H767.621V82.1172H767.61L767.61 73.8265H761.419V69.6601H759.345V67.8745H759.361V67.648H746.851V67.569H746.841V65.7939H746.851V65.7834H748.899V61.3799H740.544V55.47H742.418V57.1713L751.011 57.1713V55.1381H748.588V53.0576L746.804 53.0576V49.1808L748.588 49.1808V42.8074L746.804 42.8074V38.7885H748.588V34.5167L738.464 34.5167V30.345H736.342V28.2486L730.241 28.2486V24.3666L725.77 24.3666V34.5167H721.822V36.6131H719.853V30.4872H721.553L721.553 26.1575H719.901V24.3666L717.462 24.3666V20L692.998 20V24.3666L690.56 24.3666V26.1575L688.907 26.1575V30.4872H690.607V36.6131H688.638V34.5167L684.69 34.5167V24.3666L680.22 24.3666V28.2486L674.118 28.2486V30.345L671.996 30.345V34.5167H661.873V38.7885H663.657V42.8074H661.873V49.1808H663.657V53.0576H661.873V55.1382H659.45V57.1713L668.043 57.1713V55.47H669.917V61.3799H661.561V65.7834H663.609V65.7939H663.62V67.569H663.609V67.648H651.1V67.8692H651.116V69.6496H649.041V73.8213H642.85V82.112H642.84V82.1225H640.96L640.961 86.4838H647.183ZM707.349 63.3973H711.456V61.3167H715.224V59.2414H717.362V50.9296H715.626V47.0212H709.445V45.0407H717.452V47.0107H719.505V48.9912L723.728 48.9912V59.2993H721.59V61.3325H717.821V63.4078H715.341V73.8212H711.535V71.9935H713.62V67.6796H711.477V65.5463H707.349V63.3973ZM686.728 48.986H690.95V47.0054H693.003V45.0355L701.01 45.0355V47.016H694.83V50.919L693.093 50.919V59.2361H695.231V61.3114H698.999V63.392H703.106V65.5358H698.978V67.669H696.835V71.983H698.92V73.8107H695.115V63.3973H692.634V61.322H688.865V59.2888H686.728V48.9807V48.986Z" fill="#E95A32"/>
<path d="M391.234 86.4839V90.5397H386.921V98.941H391.072V100.89H389.28V107H395.412V105.304H397.282V107H401.638V105.304H403.509V107H409.683V100.869H407.844V98.9989H411.816V90.4607H407.833V86.31H393.278V82.1699H391.203V79.984H395.391V77.8139H397.482V76.1863H397.498V75.7544H416.146V73.7633H420.291V71.688H422.314V57.1556H422.325V55.1224H420.265V53.026H417.964V50.9665H416.135V42.7126H418.205V40.8954H422.22V42.7495L428.273 42.7495V44.8986L426.56 44.8986V46.9844H424.547V57.1608H426.15V59.2414H428.588V65.6517H430.396V69.6232H432.418V76.0335H428.662V78.072H424.064V80.0894H418.1V84.182H420.344V86.5892H422.419V88.675H424.038V90.4291H430.674V88.675H432.718V86.5787H436.769V84.4243H441.051V86.5523H442.717V90.5502H441.051V92.5149H440.636V92.5307H439.044V94.6482H436.569V96.7603H434.462V98.8778H432.807V101.148L434.415 101.148V102.87H438.64V104.935H442.891V102.902H455.154V104.935H459.405V102.865H463.63V101.143H465.237V98.8725H463.582V96.7551H461.475V94.6429H459.001V92.5254H457.408V92.5096H456.993V90.5449H455.328V86.5471H456.993V84.4191H461.276V86.5734H465.327V88.6698L467.371 88.6698V90.4291H474.007V88.675H475.625V86.5892H477.701V84.182H479.945V80.0893H473.981V78.072H469.383V76.0335H465.626V69.6232L467.649 69.6232V65.6517H469.457V59.2414H471.895V57.1608H473.497V46.9844H471.485V44.8985H469.772V42.7442H475.825V40.8954H479.839V42.7126L481.91 42.7126V50.9665L480.081 50.9665V53.026H477.78V55.1224H475.72V57.1555H475.731V71.688H477.753V73.7633H481.899V75.7544L500.542 75.7544V76.1863H500.558V77.8139H502.649V79.984H506.837V82.1699H504.761V86.31H490.206V90.4607H486.224V98.9989H490.196V100.869H488.357V107L494.531 107V105.304H496.401V107H500.757V105.304H502.628V107H508.76V100.89H506.968V98.9463H511.114V90.5449H506.805V86.4891H513V82.1278H511.129V82.1173H511.119V73.8265H504.956V69.6601H502.891V67.8745H502.906V67.648H490.453V67.569H490.443V65.7939H490.453V65.7834H492.492V61.3799H484.174V55.47H486.04V57.1713H494.594V55.1382H492.182V53.0576H490.406V49.1809H492.182V42.8074H490.406V38.7885H492.182V34.5167L482.104 34.5167V30.345H479.992V28.2486L473.918 28.2486V24.3666L469.467 24.3666V34.5167H465.537V36.6131H463.577V30.4872H465.269V26.1575H463.624V24.3666L461.197 24.3666V20L436.843 20V24.3666L434.415 24.3666V26.1575H432.771V30.4872L434.462 30.4872V36.6131L432.503 36.6131V34.5167H428.572V24.3666L424.122 24.3666V28.2486L418.048 28.2486V30.345H415.935V34.5167L405.857 34.5167V38.7885L407.633 38.7885V42.8074H405.857V49.1809H407.633V53.0576H405.857V55.1382H403.446V57.1714H412V55.47H413.865V61.3799L405.547 61.3799V65.7834H407.586V65.7939H407.597V67.569H407.586V67.648H395.133V67.8692H395.149V69.6496H393.084V73.8213H386.921V82.112H386.91V82.1225L385.04 82.1225V86.4839H391.234ZM451.129 63.3973H455.217V61.3167H458.969V59.2414H461.097V50.9296H459.368V47.0213L453.215 47.0213V45.0408L461.186 45.0408V47.0107H463.23V48.9912H467.434V59.2993L465.306 59.2993V61.3325H461.554V63.4078H459.085V73.8213H455.296V71.9935H457.372V67.6796H455.238V65.5464H451.129V63.3973ZM430.6 48.986H434.804V47.0055H436.848V45.0355H444.819V47.016H438.666V50.9191H436.937V59.2361H439.065V61.3114H442.817V63.392H446.905V65.5358H442.796V67.6691H440.663V71.983H442.738V73.8107H438.95V63.3973H436.48V61.322H432.729V59.2888H430.6V48.9807V48.986Z" fill="#E95A32"/>
<path d="M775.695 86.4838V90.5396L771.381 90.5396V98.941H775.532V100.89H773.74V107H779.872V105.304H781.743V107H786.099V105.304H787.969V107H794.143V100.869H792.304V98.9989H796.276V90.4606H792.294V86.31L777.739 86.31V82.1699H775.663V79.984H779.851V77.8139H781.942V76.1863H781.958V75.7543H800.606V73.7633H804.752V71.688H806.775V57.1555H806.785V55.1223H804.725V53.026H802.424V50.9664H800.596V42.7126H802.666V40.8954H806.68V42.7495H812.733V44.8985H811.02V46.9844H809.008V57.1608H810.61V59.2414H813.049V65.6517H814.856V69.6232H816.879V76.0335L813.122 76.0335V78.0719H808.524V80.0893H802.561V84.182H804.804V86.5892H806.88V88.675H808.498V90.429H815.135V88.675H817.179V86.5786H821.23V84.4243H825.512V86.5523H827.178V90.5502H825.512V92.5149H825.097V92.5307H823.505V94.6481H821.03V96.7603H818.923V98.8778H817.268V101.148H818.876V102.87H823.1V104.935H827.351V102.902H839.615V104.935H843.866V102.865H848.09V101.143H849.698V98.8725H848.043V96.755H845.936V94.6429H843.461V92.5254H841.869V92.5096H841.454V90.5449H839.788V86.547L841.454 86.547V84.419H845.736V86.5734H849.787V88.6697H851.831V90.429H858.468V88.675H860.086V86.5892H862.161V84.182H864.405V80.0893H858.441V78.0719H853.844V76.0335H850.087V69.6232H852.11V65.6517H853.917V59.2414H856.355V57.1608H857.958V46.9844H855.945V44.8985H854.233V42.7442H860.286V40.8954H864.3V42.7126H866.37V50.9664H864.542V53.0259H862.24V55.1223H860.181V57.1555H860.191V71.688H862.214V73.7633H866.36V75.7543L885.002 75.7543V76.1862H885.018V77.8138H887.109V79.984H891.297V82.1699H889.222V86.31H874.667V90.4606H870.684V98.9989H874.656V100.869H872.817V107H878.991V105.304H880.862V107H885.218V105.304H887.088V107H893.22V100.89H891.428V98.9462H895.574V90.5449H891.266V86.4891L897.461 86.4891V82.1278H895.59V82.1172H895.579V73.8265H889.416V69.6601H887.351V67.8745H887.367V67.648H874.914V67.569H874.903V65.7939H874.914V65.7833H876.953V61.3799H868.635V55.47H870.5V57.1713H879.054V55.1381H876.643V53.0576H874.867V49.1808H876.643V42.8074H874.867V38.7885H876.643V34.5167L866.565 34.5167V30.345H864.452V28.2486L858.378 28.2486V24.3666L853.928 24.3666V34.5167H849.997V36.6131H848.038V30.4872H849.729V26.1575H848.085V24.3666H845.657V20L821.303 20V24.3666H818.876V26.1575H817.231V30.4872H818.923V36.6131H816.963V34.5167H813.033V24.3666L808.582 24.3666V28.2486L802.508 28.2486V30.345H800.396V34.5167L790.318 34.5167V38.7885H792.094V42.8074H790.318V49.1808H792.094V53.0576H790.318V55.1381H787.906V57.1713H796.46V55.47H798.326V61.3799H790.008V65.7833H792.047V65.7939H792.057V67.569H792.047V67.648L779.594 67.648V67.8692H779.609V69.6495H777.544V73.8212H771.381V82.112H771.371V82.1225H769.5V86.4838H775.695ZM835.59 63.3973H839.678V61.3167L843.429 61.3167V59.2414H845.557V50.9296H843.829V47.0212H837.676V45.0407H845.647V47.0107H847.691V48.9912H851.894V59.2993H849.766V61.3325H846.015V63.4078H843.545V73.8212H839.757V71.9935L841.832 71.9935V67.6796L839.699 67.6796V65.5463H835.59V63.3973ZM815.061 48.9859H819.264V47.0054H821.308V45.0355L829.279 45.0355V47.016L823.126 47.016V50.919H821.398V59.2361H823.526V61.3114H827.277V63.392H831.365V65.5358H827.256V67.669H825.123V71.9829H827.199V73.8107H823.41V63.3973H820.941V61.3219H817.189V59.2888H815.061V48.9807V48.9859Z" fill="#E95A32"/>
<path d="M519.195 86.4838V90.5397H514.881V98.941H519.032V100.89H517.24V107H523.372V105.304H525.243V107H529.599V105.304H531.469V107H537.643V100.869H535.804V98.9989H539.776V90.4606H535.794V86.31H521.239V82.1699L519.163 82.1699V79.984L523.351 79.984V77.8139H525.442V76.1863H525.458V75.7544H544.106V73.7633L548.252 73.7633V71.688H550.275V57.1555H550.285V55.1224H548.226V53.026H545.924V50.9665H544.096V42.7126H546.166V40.8954H550.18V42.7495H556.233V44.8985H554.52V46.9844H552.508V57.1608H554.11V59.2414H556.549V65.6517H558.356V69.6232H560.379V76.0335H556.622V78.072H552.024V80.0893H546.061V84.182L548.304 84.182V86.5892H550.38V88.675H551.998V90.429H558.635V88.675L560.679 88.675V86.5786H564.73V84.4243H569.012V86.5523H570.678V90.5502H569.012V92.5149H568.597V92.5307H567.005V94.6481H564.53V96.7603H562.423V98.8778H560.768V101.148H562.376V102.87H566.6V104.935H570.851V102.902H583.115V104.935H587.366V102.865H591.59V101.143H593.198V98.8725H591.543V96.7551H589.436V94.6429H586.961V92.5254H585.369V92.5096H584.954V90.5449H583.288V86.547H584.954V84.4191H589.236V86.5734H593.287V88.6698H595.331V90.429H601.968V88.675H603.586V86.5892H605.661V84.182H607.905V80.0893H601.941V78.072H597.344V76.0335H593.587V69.6232H595.61V65.6517H597.417V59.2414H599.855V57.1608H601.458V46.9844H599.445V44.8985H597.733V42.7442H603.786V40.8954H607.8V42.7126H609.87V50.9665H608.042V53.026H605.74V55.1224H603.681V57.1555H603.691V71.688H605.714V73.7633H609.86V75.7544H628.502V76.1863H628.518V77.8139H630.609V79.984H634.797V82.1699H632.722V86.31L618.167 86.31V90.4606H614.184V98.9989H618.156V100.869H616.317V107H622.491V105.304H624.362V107H628.718V105.304H630.588V107H636.72V100.89H634.928V98.9463H639.074V90.5449H634.766V86.4891H640.961V82.1278H639.09V82.1172H639.079V73.8265H632.916V69.6601H630.851V67.8745H630.867V67.648L618.414 67.648V67.569H618.403V65.7939H618.414V65.7834H620.453V61.3799H612.135V55.47L614 55.47V57.1713H622.554V55.1382H620.143V53.0576H618.367V49.1809H620.143V42.8074H618.367V38.7885H620.143V34.5167H610.065V30.345H607.952V28.2486L601.878 28.2486V24.3666L597.428 24.3666V34.5167L593.497 34.5167V36.6131H591.538V30.4872H593.23V26.1575H591.585V24.3666H589.157V20L564.803 20V24.3666H562.376V26.1575H560.731V30.4872H562.423V36.6131H560.463V34.5167H556.533V24.3666L552.082 24.3666V28.2486L546.008 28.2486V30.345H543.896V34.5167L533.818 34.5167V38.7885H535.594V42.8074H533.818V49.1809H535.594V53.0576H533.818V55.1382L531.406 55.1382V57.1713L539.96 57.1713V55.47H541.826V61.3799H533.508V65.7834H535.547V65.7939H535.557V67.569H535.547V67.648H523.094V67.8692H523.109V69.6496H521.044V73.8213H514.881V82.112H514.871V82.1225H513V86.4838H519.195ZM579.09 63.3973H583.178V61.3167H586.929V59.2414H589.058V50.9296H587.329V47.0213L581.176 47.0213V45.0408L589.147 45.0408V47.0107H591.191V48.9912H595.394V59.2993H593.266V61.3325H589.515V63.4078H587.045V73.8213H583.257V71.9935H585.332V67.6796H583.199V65.5463H579.09V63.3973ZM558.561 48.986L562.764 48.986V47.0055H564.808V45.0355H572.779V47.016H566.626V50.9191H564.898V59.2361H567.026V61.3114H570.777V63.392L574.865 63.392V65.5358L570.756 65.5358V67.6691H568.623V71.983H570.699V73.8107H566.91V63.3973H564.441V61.322H560.689V59.2888H558.561V48.9807V48.986Z" fill="#E95A32"/>
<path d="M262.723 86.4839V90.5397H258.39V98.941H262.559V100.89H260.759V107H266.919V105.304H268.798V107H273.174V105.304H275.053V107L281.255 107V100.869H279.407V98.999H283.398V90.4607H279.397V86.31H264.776V82.1699H262.691L262.691 79.984H266.898V77.8139H268.999V76.1863H269.015V75.7544L287.747 75.7544V73.7633H291.911V71.688H293.943V57.1556H293.954V55.1224L291.885 55.1224V53.026H289.573V50.9665H287.736V42.7126H289.816V40.8954L293.848 40.8954V42.7495H299.929V44.8986H298.208V46.9844H296.187V57.1608H297.796V59.2414H300.246V65.6517H302.061V69.6233H304.093V76.0335H300.319V78.072H295.701V80.0894H289.71V84.1821H291.964V86.5892H294.049V88.6751H295.675V90.4291H302.341V88.6751H304.394V86.5787H308.464V84.4243H312.765V86.5523H314.439V90.5502H312.765V92.5149H312.348V92.5307H310.749V94.6482H308.263V96.7604H306.147V98.8778H304.484V101.148H306.099V102.87H310.343V104.935H314.613V102.902L326.932 102.902V104.935H331.202V102.865H335.446V101.143H337.061V98.8725H335.398V96.7551H333.282V94.6429H330.796V92.5254H329.196V92.5096H328.779V90.5449H327.106V86.5471H328.779V84.4191H333.081V86.5734H337.151V88.6698H339.204V90.4291H345.87V88.6751L347.496 88.6751V86.5892H349.581V84.182H351.834V80.0894H345.844V78.072H341.225V76.0335H337.451V69.6232H339.484V65.6517H341.299V59.2414H343.748V57.1608H345.358V46.9844H343.337V44.8986H341.616V42.7442L347.696 42.7442V40.8954H351.729V42.7126H353.808V50.9665H351.972V53.026H349.66V55.1224H347.591V57.1556H347.601V71.688H349.633V73.7633H353.798V75.7544H372.525V76.1863H372.541V77.8139H374.641V79.984H378.848V82.1699H376.763V86.31H362.143V90.4607L358.142 90.4607V98.9989H362.132V100.869H360.285V107H366.487V105.304H368.366V107H372.741V105.304H374.62V107H380.78V100.89H378.98V98.9463H383.145V90.5449H378.816V86.4891H385.039V82.1278H383.16V82.1173H383.15V73.8265H376.959V69.6601H374.884V67.8745H374.9V67.648H362.391V67.569H362.38V65.7939H362.391V65.7834H364.439V61.3799L356.083 61.3799V55.47H357.957V57.1714H366.55V55.1382H364.127V53.0576H362.343V49.1809H364.127V42.8074H362.343V38.7885H364.127V34.5167H354.004V30.345L351.882 30.345V28.2486L345.78 28.2486V24.3666L341.31 24.3666V34.5167L337.362 34.5167V36.6131H335.393V30.4872H337.092V26.1575L335.44 26.1575V24.3666L333.002 24.3666V20.0001L308.538 20.0001V24.3666L306.099 24.3666V26.1575H304.447V30.4872H306.147V36.6131H304.178V34.5167H300.23V24.3666L295.759 24.3666V28.2486L289.657 28.2486V30.345H287.536V34.5167L277.412 34.5167V38.7885H279.196V42.8074H277.412V49.1809H279.196V53.0576H277.412V55.1382H274.989V57.1714H283.582V55.47H285.456V61.3799H277.101V65.7834H279.149V65.7939H279.159V67.569H279.149V67.648H266.639V67.8692H266.655V69.6496H264.581V73.8213H258.39V82.112H258.379V82.1225H256.5V86.4839H262.723ZM322.889 63.3973H326.995V61.3167H330.764V59.2414H332.902V50.9296H331.165V47.0213H324.984V45.0408H332.991V47.0107H335.045V48.9913H339.267V59.2993H337.129V61.3325H333.361V63.4078H330.88V73.8213H327.075V71.9935H329.159V67.6796H327.016V65.5464H322.889V63.3973ZM302.267 48.986H306.49V47.0055H308.543V45.0355H316.55V47.016H310.369V50.9191H308.633V59.2361H310.77V61.3115H314.539V63.392H318.645V65.5358H314.518V67.6691H312.375V71.983H314.46V73.8107H310.654V63.3973H308.173V61.322L304.405 61.322V59.2888H302.267V48.9807V48.986Z" fill="#E95A32"/>
<path d="M134.734 86.4839V90.5397L130.421 90.5397V98.941H134.572V100.89H132.78V107H138.912V105.304H140.782V107H145.138V105.304H147.009V107H153.183V100.869H151.344V98.999H155.316V90.4607H151.333V86.3101L136.778 86.3101V82.17H134.703V79.984H138.891V77.8139H140.982V76.1863H140.998V75.7544H159.646V73.7634H163.791V71.688H165.814V57.1556H165.825V55.1224H163.765V53.026H161.464V50.9665L159.635 50.9665V42.7126L161.705 42.7126V40.8954H165.72V42.7495H171.773V44.8986H170.06V46.9844H168.047V57.1608H169.65V59.2414H172.088V65.6517H173.896V69.6233H175.918V76.0336L172.162 76.0336V78.072H167.564V80.0894H161.6L161.6 84.1821H163.844V86.5892H165.919V88.6751H167.538V90.4291H174.174V88.6751H176.218V86.5787H180.269V84.4244H184.551V86.5523H186.217V90.5502H184.551V92.5149H184.136V92.5307H182.544V94.6482H180.069V96.7604H177.962V98.8778H176.307V101.148H177.915V102.87H182.14V104.935H186.391V102.902H198.654V104.935H202.905V102.865H207.13V101.143H208.737V98.8725H207.082V96.7551H204.975V94.6429H202.501V92.5255H200.908V92.5097H200.493V90.545H198.828V86.5471L200.493 86.5471V84.4191H204.776V86.5734H208.827V88.6698H210.871V90.4291H217.507V88.6751H219.125V86.5892H221.201V84.1821H223.445V80.0894H217.481V78.072H212.883V76.0336H209.126V69.6233H211.149V65.6517H212.957V59.2414H215.395V57.1608H216.997V46.9844H214.985V44.8986L213.272 44.8986V42.7443L219.325 42.7442V40.8954H223.339V42.7126H225.41V50.9665H223.581V53.026H221.28V55.1224H219.22V57.1556H219.231V71.688H221.253V73.7634H225.399V75.7544L244.042 75.7544V76.1863H244.058V77.8139H246.149V79.984H250.337V82.17H248.261V86.31H233.706V90.4607H229.724V98.999H233.696V100.869H231.857V107H238.031V105.304H239.901V107H244.257V105.304H246.128V107H252.26V100.89H250.468V98.9463H254.614V90.545H250.305V86.4891L256.5 86.4891V82.1278H254.629V82.1173H254.619V73.8266H248.456V69.6601H246.391V67.8745H246.406V67.648H233.953V67.569H233.943V65.7939H233.953V65.7834H235.992V61.3799H227.674V55.47H229.54V57.1714H238.094V55.1382H235.682V53.0576H233.906V49.1809H235.682V42.8075H233.906V38.7885H235.682V34.5167L225.604 34.5167V30.345H223.492V28.2487L217.418 28.2487V24.3667L212.967 24.3667V34.5167H209.037V36.6131H207.077V30.4873H208.769V26.1575H207.124V24.3667L204.697 24.3667V20.0001L180.343 20.0001V24.3667L177.915 24.3667V26.1575L176.271 26.1575V30.4873H177.962V36.6131H176.003V34.5167H172.072V24.3667L167.622 24.3667V28.2487L161.548 28.2487V30.345H159.435V34.5167L149.357 34.5167V38.7885H151.133V42.8075H149.357V49.1809H151.133V53.0576H149.357V55.1382H146.946V57.1714H155.5V55.47H157.365V61.3799H149.047V65.7834H151.086V65.7939H151.097V67.569H151.086V67.648L138.633 67.648V67.8693H138.649V69.6496H136.584V73.8213H130.421V82.112H130.41V82.1226H128.54V86.4839H134.734ZM194.629 63.3973H198.717V61.3167L202.469 61.3167V59.2414H204.597V50.9296H202.868V47.0213H196.715V45.0408H204.686V47.0108H206.73V48.9913H210.934V59.2994H208.806V61.3325H205.054V63.4078H202.585V73.8213H198.796V71.9935L200.872 71.9935V67.6796L198.738 67.6796V65.5464H194.629V63.3973ZM174.1 48.986H178.304V47.0055H180.348V45.0355L188.319 45.0355V47.016L182.166 47.016V50.9191H180.437V59.2362H182.565V61.3115H186.317V63.392H190.405V65.5358H186.296V67.6691H184.163V71.983H186.238V73.8108H182.45V63.3973H179.98V61.322H176.228V59.2888H174.1V48.9807V48.986Z" fill="#E95A32"/>
<path d="M6.22297 86.4839V90.5397H1.88959L1.88959 98.941H6.05934V100.89H4.25949L4.25949 107H10.4191V105.304H12.2982V107H16.6738V105.304H18.5528V107H24.7547V100.869H22.9073V98.999H26.8976L26.8976 90.4607H22.8967V86.3101H8.27618L8.27618 82.17H6.19129V79.984H10.398V77.8139H12.4987V76.1863H12.5146V75.7544L31.2468 75.7544V73.7634H35.4113V71.6881H37.4434L37.4434 57.1556H37.4539V55.1224H35.3849V53.026H33.0731V50.9665H31.2363V42.7127H33.3159L33.3159 40.8954H37.3484L37.3484 42.7495H43.4289V44.8986H41.7082V46.9844H39.6866L39.6866 57.1609H41.2965V59.2414H43.7456V65.6517H45.5612V69.6233H47.5933V76.0336H43.8194V78.072L39.201 78.072V80.0894H33.2103V84.1821H35.4641V86.5892H37.549V88.6751H39.1746V90.4291L45.841 90.4291V88.6751H47.8942V86.5787H51.9637V84.4244H56.2654V86.5524H57.9386V90.5502H56.2654V92.5149H55.8484V92.5307H54.2491V94.6482H51.7631V96.7604H49.6466V98.8778H47.9839V101.148H49.5991V102.87H53.8427V104.935L58.1128 104.935V102.902H70.432V104.935H74.7021V102.865H78.9457V101.143H80.5609V98.8726H78.8982V96.7551H76.7817V94.6429H74.2957V92.5255H72.6964V92.5097H72.2794V90.545H70.6062V86.5471H72.2794V84.4191H76.5811V86.5734H80.6506V88.6698H82.7038V90.4291H89.3701V88.6751H90.9958V86.5892H93.0807V84.1821H95.3345L95.3345 80.0894L89.3437 80.0894V78.072H84.7253V76.0336H80.9514V69.6233H82.9835V65.6517H84.7992V59.2414H87.2483V57.1608H88.8581V46.9844H86.8366V44.8986H85.1159V42.7443H91.1964V40.8954H95.2289V42.7127H97.3085V50.9665H95.4717V53.026H93.1599V55.1224H91.0908V57.1556H91.1014V71.688H93.1335V73.7634H97.298V75.7544H116.025V76.1863H116.041V77.8139H118.141V79.984H122.348V82.17H120.263V86.3101H105.643V90.4607H101.642V98.999H105.632V100.869H103.785V107H109.987V105.304H111.866V107H116.241V105.304H118.12V107H124.28L124.28 100.89H122.48V98.9463H126.645V90.545H122.317V86.4891H128.54V82.1278H126.66V82.1173H126.65V73.8266H120.459V69.6601H118.384V67.8745H118.4V67.648H105.891V67.569H105.88V65.7939H105.891V65.7834H107.939V61.3799H99.5834V55.47H101.457V57.1714L110.05 57.1714V55.1382H107.627V53.0576L105.843 53.0576V49.1809L107.627 49.1809V42.8075L105.843 42.8075V38.7885H107.627V34.5167L97.5038 34.5167V30.345H95.382V28.2487L89.2804 28.2487V24.3667L84.8098 24.3667L84.8098 34.5167H80.8617V36.6131H78.8929V30.4873H80.5925V26.1576H78.9404V24.3667L76.5019 24.3667V20.0001L52.0376 20.0001V24.3667L49.599 24.3667V26.1576H47.947V30.4873H49.6465V36.6131H47.6778V34.5167L43.7297 34.5167V24.3667L39.2591 24.3667V28.2487L33.1575 28.2487V30.3451H31.0357V34.5168H20.9121V38.7885H22.6962L22.6962 42.8075H20.9121V49.1809H22.6962V53.0576H20.9121V55.1382H18.4895V57.1714L27.0823 57.1714V55.47H28.9561V61.38H20.6007V65.7834H22.6487V65.7939H22.6592V67.569H22.6487V67.648H10.1394V67.8693H10.1552V69.6496H8.08088L8.08088 73.8213H1.88959L1.88959 82.112H1.87902V82.1226H0L3.80626e-07 86.4839H6.22297ZM66.3889 63.3973H70.4954V61.3167H74.264V59.2414H76.4016L76.4016 50.9296H74.6651V47.0213H68.4844V45.0408H76.4914V47.0108H78.5446V48.9913L82.7671 48.9913V59.2994H80.6295V61.3325H76.8608V63.4079H74.3801V73.8213H70.5745V71.9936H72.6594V67.6796H70.5165V65.5464H66.3889V63.3973ZM45.7671 48.986H49.9896V47.0055H52.0428V45.0355L60.0498 45.0355V47.016H53.8691V50.9191L52.1326 50.9191L52.1326 59.2362H54.2702V61.3115H58.0389V63.3921H62.1453V65.5358H58.0177V67.6691H55.8748V71.983H57.9597V73.8108H54.1541V63.3973H51.6734V61.322H47.9047V59.2888H45.7671L45.7671 48.9807V48.986Z" fill="#E95A32"/>
</g>
<defs>
<clipPath id="clip0_227_3555">
<rect width="128" height="128" fill="white"/>
</clipPath>
</defs>
</svg>
