<svg width="313" height="738" viewBox="0 0 313 738" fill="none" xmlns="http://www.w3.org/2000/svg">
<g clip-path="url(#clip0_104_751)">
<path d="M214.504 531.33C212.652 531.161 211.283 531.309 209.937 532.616C208.211 534.282 208.021 534.071 205.769 534.071C205.012 534.071 204.233 534.071 203.349 534.071L203.349 528.377L197.898 528.377C197.898 526.627 197.898 524.877 197.898 523.021L197.772 523.021L186.743 523.021L186.743 528.588L181.419 528.588L181.419 534.008C181.398 537.761 181.398 541.41 181.398 545.184L186.701 545.184L186.701 550.667L186.828 550.667L186.828 550.815L192.3 550.815L192.3 567.411L197.814 567.411L197.814 578.735L192.237 578.735L192.237 595.204L186.891 595.204L186.891 595.352L175.294 595.352C175.294 595.352 175.231 595.31 175.21 595.31C168.054 595.31 160.899 595.31 153.617 595.31L153.617 595.352L147.892 595.352L147.892 599.485C146.377 599.485 145.114 599.485 143.851 599.485C143.409 599.485 142.609 599.548 142.588 599.675C142.504 600.265 142.294 600.582 142.02 600.75L136.927 600.75L136.927 600.856C136.927 600.856 136.864 600.856 136.843 600.856L136.843 606.36L131.328 606.36L131.328 606.465L125.688 606.465L125.688 617.452L120.258 617.452L120.258 617.642L120.09 617.642L120.09 639.953L114.491 639.953L114.491 645.288L109.019 645.288L109.019 639.742L103.653 639.742L103.653 623.146C105.273 623.019 107.083 623.125 108.872 623.103C110.703 623.103 112.555 623.103 114.512 623.103L114.512 617.515L114.681 617.515L114.681 612.075L120.069 612.075L120.069 606.465C120.069 604.588 120.069 602.733 120.069 600.856C112.808 600.856 105.652 600.856 98.4962 600.856C98.391 600.856 98.2857 600.919 98.2016 600.982C98.1174 601.046 98.0542 601.151 97.97 601.235C97.97 602.733 98.0121 604.251 97.928 605.748C97.928 605.917 97.6123 606.191 97.3387 606.318L96.8125 606.318C96.118 606.128 95.2761 605.58 94.9394 605.812C94.5816 606.065 94.2028 606.212 93.8239 606.318L92.4559 606.318L92.4559 606.486C91.5088 606.486 90.5407 606.297 89.5936 606.423C88.7097 606.528 87.8047 606.423 86.7944 606.423L86.7944 617.536L81.3855 617.536L81.3855 617.6C81.3645 626.962 81.3645 636.093 81.3645 645.478C81.3855 647.27 81.3855 649.041 81.3855 650.855L86.7524 650.855L86.7524 656.464L86.9207 656.464L86.9207 656.654L92.3507 656.654L92.3507 661.947L92.5191 661.947L92.5191 662.137L97.6544 662.137C97.6544 662.137 97.7596 662.242 97.8017 662.284L97.8017 678.88L92.3928 678.88C92.3928 679.682 92.3296 680.357 92.3928 681.031C92.5401 682.191 91.9298 682.254 90.9827 682.318C89.6778 682.402 88.415 682.761 87.1101 683.014C86.9207 683.71 86.605 684.068 86.2472 684.258L81.3434 684.258L81.3434 684.384C81.3434 684.384 81.2172 684.384 81.154 684.384L81.154 689.846L75.7451 689.846C75.7451 689.846 75.6399 689.846 75.5768 689.846L75.5768 684.469L69.8522 684.469C69.8522 684.469 69.7259 684.384 69.6417 684.384C64.338 684.384 59.0343 684.384 53.6044 684.384L53.6044 684.49L47.8798 684.49L47.8798 689.867L42.4709 689.867L42.4709 690.057L42.2815 690.057L42.2815 695.476L36.8726 695.476L36.8726 695.666L36.8094 695.666L36.8094 701.149L31.3795 701.149L31.3795 706.948C31.3795 706.948 31.2953 707.096 31.2953 707.18C31.2953 714.35 31.2953 721.52 31.2953 728.816L36.6831 728.816L36.6831 734.425L31.3163 734.425L31.3163 734.636L31.148 734.636L31.148 745.602L25.8443 745.602L25.8443 767.786L25.8864 767.786L25.8864 767.976L31.2111 767.976L31.2111 778.963L36.8726 778.963L36.8726 779.068L42.3657 779.068L42.3657 784.446L48.0271 784.446L48.0271 784.678L53.2677 784.678C53.2677 784.678 53.3729 784.762 53.3939 784.804L53.3939 801.168L48.0271 801.168L48.0271 801.421L47.8167 801.421L47.8167 806.777L42.4288 806.777L42.4288 806.883L36.7673 806.883L36.7673 812.302L20.2881 812.302L20.2881 806.925L20.1618 806.925C20.1618 806.44 20.1197 805.934 20.0355 805.449C19.341 805.449 18.8779 805.449 18.4149 805.449C16.3945 805.365 16.1419 805.09 15.9946 803.087C15.9525 802.539 15.9525 801.527 15.7841 801.506C15.1317 801.4 14.816 801.147 14.6687 800.831L14.6687 795.854L14.6055 795.854C14.6055 795.854 14.6055 795.77 14.6055 795.727C12.543 795.727 10.6909 795.727 8.85989 795.727C7.07095 795.727 5.26097 795.791 3.34575 795.664L3.34575 790.245L-1.91583 790.245L-1.91583 795.854L-2.00001 795.854L-2.00001 817.849L-1.91583 817.849L-1.91583 818.08L3.38785 818.08C3.45099 818.587 3.47203 819.093 3.49308 819.599C3.49308 820.231 3.49308 820.885 3.49308 821.497C3.49308 822.129 3.47203 822.762 3.49308 823.373C3.49308 823.437 3.49308 823.479 3.49308 823.542C3.49308 823.605 3.49308 823.648 3.49308 823.711C3.49308 824.344 3.49308 824.955 3.49308 825.588C3.49308 826.22 3.49308 826.853 3.49308 827.486C3.49308 827.992 3.45099 828.498 3.38785 829.004L-1.91583 829.004L-1.91583 829.236L-2.00001 829.236L-2.00001 851.23L-1.91583 851.23L-1.91583 856.84L3.34576 856.84L3.34576 851.42C5.23993 851.294 7.04991 851.378 8.85989 851.357C10.6909 851.357 12.543 851.357 14.6055 851.357C14.6055 851.315 14.6055 851.273 14.6055 851.23L14.6687 851.23L14.6687 846.254C14.816 845.937 15.1317 845.684 15.7841 845.579C15.9315 845.558 15.9525 844.546 15.9946 843.997C16.1419 841.994 16.3945 841.72 18.4149 841.635C18.8779 841.635 19.341 841.635 20.0355 841.635C20.0986 841.15 20.1407 840.665 20.1618 840.159L20.2881 840.159L20.2881 834.782L36.7673 834.782L36.7673 840.201L42.4288 840.201L42.4288 840.307L47.8167 840.307L47.8167 845.663L48.0271 845.663L48.0271 845.916L53.3939 845.916L53.3939 862.28C53.3729 862.323 53.3308 862.365 53.2677 862.407L48.0271 862.407L48.0271 862.639L42.3657 862.639L42.3657 868.016L36.8726 868.016L36.8726 868.122L31.2111 868.122L31.2111 879.108L25.8864 879.108L25.8864 879.298L25.8443 879.298L25.8443 901.482L31.148 901.482L31.148 912.448L31.3163 912.448L31.3163 912.659L36.6831 912.659L36.6831 918.268L31.2953 918.268C31.2953 925.565 31.2953 932.734 31.2953 939.904C31.2953 939.989 31.3374 940.073 31.3795 940.136L31.3795 945.935L36.8094 945.935L36.8094 951.418L36.8726 951.418L36.8726 951.608L42.2815 951.608L42.2815 957.027L42.4709 957.027L42.4709 957.217L47.8798 957.217L47.8798 962.595L53.6044 962.595L53.6044 962.7C59.0344 962.7 64.338 962.7 69.6417 962.7C69.7048 962.7 69.768 962.658 69.8522 962.616L75.5768 962.616L75.5768 957.238C75.5768 957.238 75.682 957.238 75.7451 957.238L81.154 957.238L81.154 962.7C81.154 962.7 81.2803 962.7 81.3435 962.7L81.3435 962.827L86.2473 962.827C86.605 963.016 86.9207 963.375 87.1102 964.071C88.394 964.324 89.6778 964.682 90.9827 964.767C91.9298 964.83 92.5401 964.893 92.3928 966.053C92.3086 966.728 92.3928 967.403 92.3928 968.204L97.8017 968.204L97.8017 984.8C97.8017 984.8 97.7175 984.884 97.6544 984.948L92.5191 984.948L92.5191 985.137L92.3507 985.137L92.3507 990.43L86.9207 990.43L86.9207 990.62L86.7524 990.62L86.7524 996.23L81.3856 996.23L81.3856 1001.61C81.3645 1010.97 81.3645 1020.1 81.3645 1029.48C81.3645 1029.48 81.3856 1029.53 81.3856 1029.55L86.7945 1029.55L86.7945 1040.66C87.8047 1040.66 88.7097 1040.58 89.5936 1040.66C90.5407 1040.77 91.4878 1040.6 92.4559 1040.6L92.4559 1040.77L93.8239 1040.77C94.2028 1040.87 94.5606 1041.02 94.9394 1041.27C95.2761 1041.5 96.0969 1040.96 96.8125 1040.77L97.3387 1040.77C97.6123 1040.89 97.928 1041.15 97.928 1041.34C98.0122 1042.83 97.9701 1044.35 97.9701 1045.85C98.0543 1045.93 98.1174 1046.04 98.2016 1046.1C98.2858 1046.17 98.391 1046.23 98.4962 1046.23C105.652 1046.23 112.808 1046.23 120.069 1046.23L120.069 1040.62C120.069 1038.66 120.069 1036.95 120.069 1035.01L114.681 1035.01L114.681 1029.57L114.512 1029.57L114.512 1023.98C112.555 1023.98 110.724 1023.98 108.872 1023.98C107.083 1023.98 105.273 1024.07 103.653 1023.94L103.653 1007.34L109.019 1007.34L109.019 1001.8L114.491 1001.8L114.491 1007.13L120.09 1007.13L120.09 1029.44L120.258 1029.44L120.258 1029.63L125.688 1029.63L125.688 1040.62L131.328 1040.62L131.328 1040.72L136.843 1040.72L136.843 1046.23C136.843 1046.23 136.906 1046.23 136.927 1046.23L136.927 1046.33L142.02 1046.33C142.294 1046.5 142.504 1046.8 142.588 1047.41C142.588 1047.54 143.409 1047.6 143.851 1047.6C145.114 1047.62 146.377 1047.6 147.892 1047.6L147.892 1051.73L153.617 1051.73L153.617 1051.77C160.899 1051.77 168.054 1051.77 175.21 1051.77C175.252 1051.77 175.273 1051.73 175.294 1051.73L186.891 1051.73L186.891 1051.88L192.237 1051.88L192.237 1068.35L197.814 1068.35L197.814 1079.67L192.3 1079.67L192.3 1096.27L186.828 1096.27L186.828 1096.42L186.701 1096.42L186.701 1101.9L181.398 1101.9L181.398 1113.08C181.419 1114.87 181.419 1116.66 181.419 1118.5L186.743 1118.5L186.743 1124L197.772 1124L197.898 1124C197.898 1122.14 197.898 1120.39 197.898 1118.64L203.349 1118.64L203.349 1112.95C204.233 1112.95 205.012 1112.95 205.769 1112.95C208.021 1112.95 208.211 1112.74 209.937 1114.41C211.284 1115.71 212.652 1115.84 214.504 1115.69L214.504 1124L225.742 1124L225.742 1118.62L231.13 1118.62L231.13 1118.43L231.341 1118.43L231.341 1113.01L236.686 1113.01L236.686 1112.82C236.686 1110.99 236.686 1109.28 236.686 1107.32L231.214 1107.32L231.214 1101.9L231.13 1101.9L231.13 1101.71L225.742 1101.71L225.742 1096.29L225.532 1096.29L225.532 1090.64L220.249 1090.64L220.249 1057.28L225.532 1057.28L225.532 1052.11C225.721 1051.94 225.805 1051.86 225.89 1051.8C225.974 1051.73 226.079 1051.69 226.184 1051.69C240.748 1051.69 255.312 1051.69 269.982 1051.69L269.982 1046.19L281.136 1046.19L281.136 1040.68L286.608 1040.68L286.608 1035.09L292.207 1035.09L292.207 1029.4L292.333 1029.4L292.333 1018.35L297.847 1018.35C297.847 1018.35 297.847 1018.27 297.847 1018.22L297.931 1018.22L297.931 1007.43C298.1 1007.2 298.394 1007.05 298.984 1007.03C299.089 1007.03 299.215 1006.44 299.215 1006.12C299.236 1005.07 299.215 1004.03 299.362 1002.56C299.173 1002.56 299.005 1002.96 298.899 1002.94C298.563 1002.87 298.247 1002.7 297.931 1002.56L297.931 1002.34C298.079 1002.05 298.226 1001.71 298.457 1001.63C298.668 1001.54 299.047 1001.9 299.362 1002.56C300.267 1002.98 301.299 1002.94 302.351 1002.98C303.046 1003 303.403 1002.87 303.445 1002.07C303.445 1001.88 304.119 1001.61 304.498 1001.61C305.024 1001.59 305.55 1001.59 306.097 1001.59C307.044 1001.59 307.991 1001.59 308.96 1001.71C308.96 1002.7 308.938 1003.67 308.96 1004.62C308.96 1005.3 308.896 1006.29 309.086 1006.69L309.086 1007.2L309.633 1007.2C310.054 1007.57 310.264 1008.08 310.643 1008.35C311.19 1008.76 312.18 1008.52 312.958 1008.54C313.4 1008.54 313.842 1008.54 314.368 1008.54L314.368 1018.2L309.023 1018.2L309.023 1018.37L308.875 1018.37L308.875 1023.81L303.424 1023.81L303.424 1023.98L297.847 1023.98C297.847 1025.94 297.847 1027.78 297.847 1029.61C297.847 1031.4 297.91 1033.22 297.784 1035.14L292.375 1035.14L292.375 1040.64L292.438 1040.64L292.438 1046.04L297.931 1046.04L297.931 1046.12C303.361 1046.12 308.665 1046.12 313.969 1046.12C314.053 1046.12 314.137 1046.08 314.221 1046.04L319.946 1046.04L319.946 1040.68L325.544 1040.68L325.544 1040.56L325.691 1040.56L325.691 1035.07L331.1 1035.07L331.1 996.061L331.016 996.061L331.016 995.934L325.649 995.934L325.649 990.578C325.628 988.701 325.628 986.824 325.628 984.884L320.177 984.884L320.177 973.834C320.177 971.979 320.177 970.102 320.177 968.225L325.523 968.225L325.523 962.742L331.121 962.742L331.121 962.573L331.311 962.573L331.311 957.217L336.72 957.217L336.72 962.489L342.465 962.489L342.465 962.573L359.05 962.573L359.05 962.489L364.543 962.489L364.543 957.175L375.571 957.175L375.571 951.397L375.676 951.397L375.676 945.999L381.169 945.999L381.169 945.914L381.275 945.914L381.275 907.007L386.642 907.007L386.642 906.923C386.663 895.704 386.663 884.718 386.663 873.478L381.317 873.478L381.317 868.079L381.085 868.079L381.085 867.995L375.613 867.995L375.613 862.386L364.459 862.386L364.459 856.776L359.05 856.776L359.05 854.752C359.134 853.761 359.408 852.749 359.723 851.8C359.807 851.547 360.418 851.336 360.797 851.315C361.954 851.251 363.091 851.294 364.501 851.294L364.606 851.294L364.606 845.769L369.973 845.769L369.973 840.286L375.655 840.286C375.655 839.485 375.655 838.936 375.655 838.388C375.655 837.692 375.424 836.827 375.761 836.364C376.034 835.984 376.981 836.089 377.634 835.984C377.739 835.984 377.928 836.026 377.97 835.984C378.539 835.246 379.212 834.866 379.928 834.698L392.24 834.698L392.24 840.096L397.838 840.096L397.838 851.273L408.866 851.273L408.866 856.713C410.761 857.051 412.55 856.755 414.465 856.924L414.465 851.378L420.021 851.378L420.021 840.201L419.937 840.201L419.937 840.075L414.612 840.075L414.612 806.883L419.937 806.883L419.937 806.756L420.021 806.756L420.021 795.58L414.465 795.58L414.465 790.034C412.55 790.203 410.761 789.907 408.866 790.245L408.866 795.685L397.838 795.685L397.838 806.862L392.24 806.862L392.24 812.26L379.928 812.26C379.212 812.07 378.56 811.712 377.97 810.974C377.928 810.911 377.739 810.974 377.634 810.974C376.981 810.868 376.034 810.974 375.761 810.594C375.424 810.151 375.655 809.266 375.655 808.57C375.655 808.022 375.655 807.473 375.655 806.672L369.973 806.672L369.973 801.189L364.606 801.189L364.606 795.664L364.501 795.664C363.112 795.664 361.954 795.706 360.797 795.643C360.418 795.643 359.807 795.432 359.723 795.158C359.408 794.209 359.134 793.197 359.05 792.206L359.05 790.181L364.459 790.181L364.459 784.572L375.613 784.572L375.613 778.963L381.085 778.963L381.085 778.878L381.317 778.878L381.317 773.48L386.663 773.48L386.663 740.035C386.663 740.035 386.642 739.972 386.642 739.95L381.275 739.95L381.275 701.044L381.169 701.044L381.169 700.959L375.676 700.959L375.676 695.561L375.571 695.561L375.571 689.783L364.543 689.783L364.543 684.469L359.05 684.469L359.05 684.384L342.465 684.384L342.465 684.469L336.72 684.469L336.72 689.741L331.311 689.741L331.311 684.384L331.121 684.384L331.121 684.216L325.523 684.216L325.523 678.733L320.177 678.733L320.177 673.123C320.177 669.412 320.177 665.743 320.177 662.074L325.628 662.074L325.628 656.38C325.649 654.587 325.649 652.921 325.649 651.024L331.016 651.024L331.016 650.897L331.1 650.897L331.1 611.885L325.691 611.885L325.691 606.402L325.544 606.402L325.544 606.275L319.946 606.275L319.946 600.919L314.221 600.919C314.221 600.919 314.053 600.835 313.969 600.835C308.665 600.835 303.361 600.835 297.931 600.835L297.931 600.919L292.438 600.919L292.438 606.318L292.375 606.318L292.375 611.821L297.784 611.821C297.91 613.719 297.826 615.533 297.847 617.346C297.847 619.181 297.847 621.016 297.847 622.977L303.424 622.977L303.424 623.146L308.875 623.146L308.875 628.586L309.023 628.586L309.023 628.755L314.368 628.755L314.368 638.413C313.821 638.413 313.4 638.413 312.958 638.413C312.159 638.434 311.169 638.223 310.643 638.603C310.264 638.877 310.054 639.362 309.633 639.763L309.086 639.763L309.086 640.269C308.896 640.669 308.981 641.661 308.96 642.335C308.938 643.305 308.96 644.254 308.96 645.246C307.991 645.372 307.023 645.393 306.097 645.372C305.571 645.372 305.024 645.372 304.519 645.351C304.14 645.351 303.487 645.056 303.466 644.887C303.424 644.086 303.067 643.938 302.372 643.98C301.341 644.022 300.288 643.98 299.383 644.402C299.068 645.056 298.689 645.414 298.478 645.33C298.247 645.246 298.1 644.908 297.952 644.613L297.952 644.402C298.268 644.254 298.584 644.086 298.92 644.001C299.026 644.001 299.194 644.36 299.383 644.381C299.236 642.926 299.257 641.871 299.236 640.817C299.236 640.501 299.089 639.931 299.005 639.91C298.436 639.889 298.121 639.721 297.952 639.51L297.952 628.713L297.868 628.713C297.868 628.713 297.868 628.628 297.868 628.586L292.354 628.586L292.354 617.536L292.228 617.536L292.228 611.843L286.629 611.843L286.629 606.254L281.157 606.254L281.157 600.75L270.003 600.75L270.003 595.247C255.312 595.247 240.748 595.247 226.205 595.247C226.1 595.247 225.995 595.183 225.911 595.141C225.805 595.078 225.742 594.993 225.553 594.825L225.553 589.658L220.27 589.658L220.27 556.298L225.553 556.298L225.553 550.646L225.763 550.646L225.763 545.226L231.151 545.226L231.151 545.037L231.235 545.037L231.235 539.617L236.707 539.617L236.707 534.113C236.707 534.113 236.707 533.987 236.707 533.923L231.362 533.923L231.362 528.504L231.151 528.504L231.151 528.293L225.763 528.293L225.763 522.916L214.525 522.916L214.525 531.245L214.504 531.33ZM264.447 617.979L264.447 623.019L236.876 623.019L236.876 617.705L264.404 617.705C264.404 617.705 264.404 617.895 264.425 618L264.447 617.979ZM197.898 617.515L203.496 617.515L203.496 612.053L214.504 612.053L214.504 622.977L203.475 622.977L203.475 617.663L197.898 617.663L197.898 622.998L192.426 622.998L192.426 623.082L192.342 623.082L192.342 617.642L197.898 617.642L197.898 617.494L197.898 617.515ZM186.638 628.628L181.229 628.628L181.229 623.23L175.61 623.23L175.61 623.04L153.596 623.04L153.596 617.663L175.294 617.663C175.294 617.663 175.421 617.705 175.421 617.726C175.82 619.75 177.357 618.717 178.409 618.886C179.272 619.033 180.198 618.907 181.124 618.907C181.208 620.446 181.271 621.775 181.335 623.082L192.216 623.082L192.216 634.069L186.828 634.069L186.828 628.692L186.638 628.692L186.638 628.607L186.638 628.628ZM225.763 623.103C227.636 623.103 229.425 623.103 231.214 623.103L231.214 628.586L225.763 628.586L225.763 628.797L225.553 628.797L225.553 634.09L220.249 634.09L220.249 617.684L225.742 617.684L225.742 623.125L225.763 623.103ZM258.869 650.855L259.08 650.855L259.08 651.045L264.425 651.045L264.425 667.599L259.038 667.599L259.038 673.355L258.869 673.355L258.869 678.67L231.362 678.67L231.362 684.258L214.651 684.258L214.651 689.846L197.94 689.846L197.94 684.405L192.216 684.405L192.216 684.342L181.356 684.342L181.356 678.923C180.366 678.88 179.482 678.817 178.599 678.817C177.609 678.817 176.62 678.817 175.652 678.817L175.652 678.754L159.636 678.754C159.089 678.627 158.815 678.29 158.962 677.362C158.983 677.215 158.331 676.729 158.057 676.772C157.068 676.94 156.332 676.455 155.553 676.034C155.363 675.928 155.006 675.907 154.985 675.802C154.858 675.021 155.027 674.094 154.648 673.524C154.395 673.166 153.869 673.081 153.596 672.681L153.596 645.499L175.589 645.499L175.589 650.918L175.757 650.918L175.757 651.066L181.229 651.066L181.229 656.401L186.743 656.401L225.532 656.401L231.235 656.401L231.235 651.066L236.686 651.066L236.686 650.918L242.369 650.918L242.369 645.541L258.869 645.541L258.869 650.855ZM297.763 678.648L292.459 678.648L292.459 678.754L292.228 678.754L292.228 684.279L282.357 684.279C282.02 684.279 281.683 684.279 281.347 684.237L281.347 662.327C281.347 662.327 281.368 662.284 281.431 662.221L292.438 662.221L292.438 667.725L297.784 667.725L297.784 678.627L297.763 678.648ZM120.174 684.216C120.069 682.571 120.153 680.757 120.132 678.965C120.132 677.13 120.132 675.296 120.132 673.334L120.006 673.334L120.006 673.06L114.702 673.06L114.702 667.599L120.153 667.599L120.153 662.179L125.562 662.179L125.562 662.116L131.055 662.116L131.055 684.195L120.216 684.195C120.216 684.195 120.174 684.195 120.153 684.195L120.174 684.216ZM358.987 745.56L364.396 745.56L364.396 762.029C364.396 762.029 364.332 762.093 364.29 762.135C364.206 762.198 364.122 762.24 364.017 762.261C358.734 762.261 353.536 762.261 348.358 762.261C348.253 762.261 348.148 762.198 348.064 762.135C348.022 762.114 348 762.071 347.958 762.029L347.958 751.275L342.423 751.275L342.423 745.518L347.874 745.518L347.874 706.674L358.924 706.674L358.924 745.56L358.945 745.56L358.987 745.56ZM331.058 790.055L325.797 790.055L325.797 795.791L325.523 795.791L325.523 801.084L320.219 801.084L320.219 801.252L320.03 801.252L320.03 806.693L309.086 806.693L309.086 812.471L309.044 812.471L309.044 834.508L309.086 834.508L309.086 840.286L320.03 840.286L320.03 845.726L320.219 845.726L320.219 845.895L325.523 845.895L325.523 851.188L325.797 851.188L325.797 856.924L331.058 856.924L331.058 879.045L325.733 879.045L325.733 884.57L314.6 884.57L314.6 868.058L314.495 868.058L314.495 867.953L309.002 867.953L309.002 857.029L308.896 857.029L308.896 856.798L303.53 856.798C303.319 854.984 303.466 853.234 303.424 851.504C303.382 849.67 303.424 847.835 303.424 845.874L297.931 845.874L297.931 840.265L297.868 840.265C297.868 840.265 297.868 840.159 297.868 840.117L292.354 840.117L292.354 834.677C292.354 834.677 292.354 834.571 292.354 834.529L286.903 834.529L286.903 829.194L281.199 829.194L281.199 829.046L275.748 829.046L275.748 823.605L264.636 823.605L264.636 823.458L275.748 823.458L275.748 818.017L281.199 818.017L281.199 817.87L286.903 817.87L286.903 812.534L292.354 812.534L292.354 812.387C292.354 810.531 292.354 808.781 292.354 806.946L297.868 806.946C297.868 806.946 297.868 806.841 297.868 806.799L297.931 806.799L297.931 801.189L303.424 801.189C303.424 799.228 303.403 797.393 303.424 795.559C303.445 793.83 303.319 792.079 303.53 790.266L308.896 790.266L308.896 790.034L309.002 790.034L309.002 779.11L314.495 779.11L314.495 779.005L314.6 779.005L314.6 762.493L325.733 762.493L325.733 768.018L331.058 768.018L331.058 790.139L331.058 790.055ZM364.311 884.844C364.311 884.844 364.396 884.907 364.417 884.95L364.417 901.419L359.008 901.419C358.987 914.43 358.987 927.336 358.987 940.305L347.937 940.305L347.937 901.461L342.486 901.461L342.486 895.704L348.022 895.704L348.022 884.95C348.022 884.95 348.085 884.865 348.127 884.844C348.211 884.781 348.316 884.718 348.421 884.718C353.599 884.718 358.776 884.718 364.08 884.718C364.164 884.718 364.269 884.781 364.353 884.844L364.311 884.844ZM53.5413 924.299C53.6886 924.067 53.9201 923.856 54.2358 923.667L58.9291 923.667L58.9291 912.49L58.866 912.49L58.866 907.05L53.4781 907.05L53.4781 901.44L53.3729 901.44L48.0271 901.44L48.0271 884.718L58.4871 884.718C60.3603 884.718 62.2123 884.718 64.0644 884.718C64.1697 884.718 64.2749 884.781 64.3591 884.844C64.4012 884.886 64.4433 884.929 64.5064 885.013L64.5064 890.243L64.7169 890.243L64.7169 890.327L69.9784 890.327L69.9784 906.965L64.5906 906.965L64.5906 907.071L64.4643 907.071L64.4643 940.263L53.5834 940.263C53.5834 939.989 53.5413 939.672 53.5202 939.356L53.5202 924.299L53.5413 924.299ZM86.7524 879.087L84.2268 879.087C82.8588 878.94 82.7957 878.434 82.6483 876.198C82.6062 875.418 82.5641 874.849 81.5539 874.912C81.5118 874.912 81.4066 874.638 81.3224 874.3L81.3224 862.449L86.8997 862.449L86.8997 851.273L92.3717 851.273L92.3717 845.663L97.9701 845.663L97.9701 840.054L103.316 840.054C103.526 835.351 103.589 828.983 103.547 823.458C103.61 817.954 103.547 811.585 103.316 806.862L97.9701 806.862L97.9701 801.252L92.3717 801.252L92.3717 795.643L86.8997 795.643L86.8997 784.467L81.3224 784.467L81.3224 772.615C81.3855 772.299 81.4908 772.004 81.5539 772.004C82.5641 772.067 82.5852 771.498 82.6483 770.717C82.7746 768.503 82.8588 767.997 84.2268 767.828L86.7524 767.828L86.7524 767.554C86.7524 767.554 86.8365 767.533 86.8786 767.512L86.8786 762.325L92.2244 762.325L92.2244 762.177C92.2244 762.177 92.4138 762.177 92.498 762.177C94.2449 762.198 95.9917 762.071 97.8227 762.282L97.8227 773.269L98.0332 773.269L98.0332 773.332L103.421 773.332L103.421 784.446L103.505 784.446L103.505 790.076L108.893 790.076L108.893 795.496L109.104 795.496L109.104 795.685L114.491 795.685L114.491 801.105L114.576 801.105C114.576 801.105 114.576 801.252 114.576 801.337C114.576 803.15 114.512 804.943 114.639 806.862L120.174 806.862L120.174 812.366L131.16 812.366L131.16 817.827L131.328 817.827L131.328 817.87C133.286 817.87 135.117 817.849 136.948 817.87C138.758 817.891 140.568 817.743 142.483 817.975L142.483 828.898C140.589 829.152 138.758 828.983 136.948 829.004C135.117 829.046 133.286 829.004 131.328 829.004L131.328 829.046L131.16 829.046L131.16 834.508L120.174 834.508L120.174 840.012L114.639 840.012C114.512 841.91 114.597 843.723 114.576 845.537C114.576 845.621 114.576 845.684 114.576 845.769L114.491 845.769L114.491 851.188L109.104 851.188L109.104 851.378L108.893 851.378L108.893 856.798L103.505 856.798L103.505 862.428L103.421 862.428L103.421 873.541L98.0332 873.541L98.0332 873.604L97.8227 873.604L97.8227 884.591C95.9917 884.802 94.2449 884.654 92.498 884.697C92.4138 884.697 92.3086 884.697 92.2244 884.697L92.2244 884.549L86.8786 884.549L86.8786 879.361C86.8786 879.361 86.7945 879.34 86.7524 879.319L86.7524 879.045L86.7524 879.087ZM60.4024 821.897C60.4444 821.117 60.4024 820.316 60.4024 819.282L64.6327 819.282L64.6327 812.534L75.6399 812.534L75.6399 818.059L80.9857 818.059C81.0699 819.873 81.1751 821.686 81.2172 823.521C81.1751 825.335 81.0699 827.169 80.9857 828.983L75.6399 828.983L75.6399 834.508L64.6327 834.508L64.6327 827.76L60.4024 827.76C60.4024 826.726 60.4445 825.925 60.4024 825.145C60.3603 824.575 60.676 823.732 59.9393 823.542C60.676 823.331 60.3603 822.509 60.4024 821.94L60.4024 821.897ZM48.0271 745.56L53.3729 745.56L53.4781 745.56L53.4781 739.95L58.866 739.95L58.866 734.51L58.9291 734.51L58.9291 723.333L54.2358 723.333C53.9201 723.144 53.6675 722.933 53.5412 722.701L53.5412 707.644C53.5412 707.328 53.5833 707.011 53.6044 706.737L64.4853 706.737L64.4853 739.929L64.6116 739.929L64.6116 740.035L69.9995 740.035L69.9995 756.673L64.7379 756.673L64.7379 756.757L64.5274 756.757L64.5274 761.987C64.5274 761.987 64.4222 762.114 64.3801 762.156C64.2959 762.219 64.1907 762.282 64.0855 762.282C62.1702 762.282 60.234 762.282 58.3188 762.282L48.0482 762.282L48.0482 745.56L48.0271 745.56ZM136.906 701.107L175.694 701.107L175.694 706.653L192.405 706.653L192.405 712.051L197.772 712.051L197.772 712.073L203.37 712.073L203.37 712.051L203.559 712.051L203.559 706.716L209.032 706.716L209.032 712.009L220.186 712.009L220.186 706.653L231.088 706.653L231.088 706.505L236.897 706.505L236.897 701.107L275.685 701.107L275.685 706.653L281.284 706.653L281.284 712.262L286.756 712.262C286.777 714.034 286.756 715.784 286.756 717.661L286.861 717.661L286.861 717.851L292.249 717.851L292.249 723.27L292.333 723.27L292.333 728.901L297.721 728.901L297.721 762.135L292.396 762.135L292.396 767.892L292.186 767.892L292.186 778.878L286.798 778.878L286.798 779.068L286.608 779.068L286.608 784.488L281.199 784.488L281.199 789.971L275.727 789.971L275.727 795.58L270.129 795.58L270.129 801.084L248.199 801.084C247.988 800.957 247.82 800.725 247.736 800.24C247.652 799.755 246.326 799.27 245.526 799.186C244.011 799.038 243.526 798.237 243.695 796.908C243.842 795.749 243.253 795.601 242.285 795.643L242.285 795.601L236.729 795.601L236.729 790.16L231.256 790.16L231.256 784.551L225.763 784.551L225.763 773.501L220.207 773.501L220.207 756.631L225.679 756.631L225.679 745.454L231.278 745.454L231.278 740.014L236.729 740.014L236.729 739.845C236.75 738.01 236.75 736.302 236.75 734.531L247.736 734.531L258.996 734.531L258.996 740.035L264.362 740.035L264.362 756.673L253.481 756.673L253.481 762.156L247.925 762.156L247.925 773.332L248.009 773.332L248.009 773.459L253.523 773.459L253.523 778.773L258.932 778.773L258.932 778.794L264.404 778.794L264.404 778.773L275.664 778.773L275.664 773.269L281.263 773.269L281.263 762.219L286.608 762.219L286.608 756.778C286.608 749.25 286.608 741.996 286.608 734.468L281.22 734.468L281.22 723.291L275.622 723.291L275.622 717.808L270.15 717.808L270.15 712.22L231.235 712.22L231.235 717.64L220.081 717.64L220.081 723.249L220.018 723.249L214.609 723.249L214.609 728.732L209.011 728.732L209.011 734.236L203.412 734.236L203.412 728.943L203.265 728.943L203.265 728.669L197.919 728.669L197.919 723.333L197.793 723.333L197.793 723.186L192.342 723.186L192.342 717.724L186.659 717.724L186.659 717.576L181.314 717.576L181.314 712.515C180.514 712.368 178.367 712.241 175.505 712.157L175.505 712.094C174.789 712.094 174.095 712.094 173.4 712.094C165.655 711.925 154.374 711.946 147.955 712.241L147.955 717.597L136.801 717.597L136.801 723.312L136.632 723.312L136.632 728.753L131.265 728.753L131.265 767.639C131.265 767.639 131.265 767.744 131.265 767.786L136.632 767.786L136.632 773.248L136.801 773.248L136.801 773.396L142.399 773.396L142.399 778.878C147.829 778.878 153.132 778.878 158.436 778.878C158.541 778.878 158.647 778.815 158.731 778.752C158.815 778.689 158.878 778.583 159.089 778.351L159.089 773.332C160.814 773.332 162.561 773.332 164.392 773.332L164.392 762.282L164.35 762.282L164.35 762.093L159.004 762.093L159.004 756.673L153.406 756.673L153.406 751.19L147.955 751.19C147.913 750.874 147.934 750.558 147.913 750.241L147.913 740.014L153.343 740.014L153.343 739.887L153.469 739.887L153.469 734.51L175.736 734.51L175.736 740.035L181.335 740.035L181.335 745.518L186.807 745.518L186.807 751.127L192.131 751.127L192.131 778.815L186.807 778.815L186.807 784.572L186.743 784.572L186.743 789.992L181.335 789.992L181.335 790.055L181.145 790.055L181.145 795.559C179.314 795.664 177.546 795.601 175.82 795.601C173.989 795.601 172.158 795.601 170.201 795.601L170.201 800.999L147.934 800.999L147.934 795.643L142.188 795.643L142.188 795.559L136.779 795.559L136.779 790.16L136.716 790.16L136.716 789.949L131.307 789.949L131.307 784.551L131.118 784.551L131.118 784.34L125.709 784.34L125.709 773.374L125.583 773.374C125.583 773.374 125.583 773.248 125.583 773.185L120.216 773.185L120.216 756.757L115.502 756.757C114.954 756.652 114.66 756.42 114.534 756.125L114.534 754.649C114.534 754.48 114.576 754.311 114.555 754.164C114.534 753.552 114.534 752.941 114.534 752.329L114.534 736.977C114.534 736.555 114.534 736.134 114.576 735.712C114.576 735.522 114.576 735.29 114.534 735.079L114.534 734.299L120.09 734.299C120.09 730.841 120.09 727.509 120.111 724.177C120.111 723.839 120.553 723.207 120.679 723.228C122.489 723.586 122.026 722.3 122.194 721.33C122.321 720.613 122.573 719.812 123.036 719.263C123.31 718.947 124.089 718.989 124.636 719.01C125.351 719.031 125.667 718.842 125.667 718.061C125.625 716.164 125.667 714.245 125.667 712.136L131.16 712.136L131.16 711.967L131.307 711.967L131.307 706.526L136.653 706.526L136.653 706.358L136.906 706.358L136.906 700.959L136.906 701.107ZM246.389 823.5C243.274 823.5 240.159 823.5 236.813 823.5L236.813 829.046L225.784 829.046L225.784 834.529L220.186 834.529L220.186 834.655L220.06 834.655L220.06 840.138L214.609 840.138L214.609 840.265L214.483 840.265L214.483 845.748L209.032 845.748L209.032 845.874L208.905 845.874L208.905 851.23L203.581 851.23L203.581 845.874L203.454 845.874L203.454 845.726L198.003 845.726L198.003 840.286L197.877 840.286L197.877 840.138L192.426 840.138L192.426 834.698C192.426 834.698 192.426 834.592 192.426 834.55L186.975 834.55L186.975 829.215L181.292 829.215L181.292 829.067L175.841 829.067L175.841 823.605L164.729 823.605L164.729 823.458L175.841 823.458L175.841 817.996L181.292 817.996L181.292 817.849L186.975 817.849L186.975 812.513L192.426 812.513L192.426 812.366C192.426 810.51 192.426 808.76 192.426 806.925L197.877 806.925L197.877 806.777L198.003 806.777L198.003 801.337L203.454 801.337L203.454 801.189L203.581 801.189L203.581 795.833L208.905 795.833L208.905 801.189L209.032 801.189L209.032 801.316L214.483 801.316L214.483 806.799L214.609 806.799L214.609 806.925L220.06 806.925L220.06 812.408L220.186 812.408L220.186 812.534L225.784 812.534L225.784 818.017L236.813 818.017L236.813 823.563C240.159 823.563 243.274 823.563 246.389 823.563L246.389 823.5ZM108.935 701.17C108.935 701.17 108.935 701.318 108.935 701.381L108.935 706.505L103.526 706.505L103.526 706.632L103.379 706.632L103.379 717.682L97.928 717.682L97.928 717.808L97.7806 717.808L97.7806 728.858L92.4559 728.858L92.4559 734.383L86.9207 734.383L86.9207 712.136L92.4138 712.136L92.4138 706.526L97.8859 706.526L97.8859 701.191L108.935 701.191L108.935 701.17ZM97.8859 940.474L92.4138 940.474L92.4138 934.864L86.9207 934.864L86.9207 912.617L92.4559 912.617L92.4559 918.142L97.7806 918.142L97.7806 929.192L97.928 929.192L97.928 929.318L103.379 929.318L103.379 940.368L103.526 940.368L103.526 940.495L108.935 940.495L108.935 945.619C108.935 945.619 108.935 945.767 108.935 945.83L97.8859 945.83L97.8859 940.495L97.8859 940.474ZM136.653 940.347L131.307 940.347L131.307 934.906L131.16 934.906L131.16 934.738L125.667 934.738C125.667 932.608 125.646 930.71 125.667 928.812C125.667 928.032 125.351 927.842 124.636 927.863C124.089 927.863 123.31 927.926 123.036 927.61C122.573 927.062 122.321 926.282 122.194 925.543C122.047 924.573 122.489 923.287 120.679 923.646C120.553 923.667 120.111 923.034 120.111 922.697C120.069 919.365 120.09 916.033 120.09 912.575L114.534 912.575L114.534 911.794C114.576 911.562 114.597 911.351 114.576 911.162C114.534 910.74 114.555 910.318 114.534 909.896L114.534 894.545C114.534 893.933 114.534 893.321 114.555 892.71C114.555 892.562 114.555 892.394 114.534 892.225L114.534 890.749C114.66 890.454 114.954 890.222 115.502 890.116L120.216 890.116L120.216 873.689L125.583 873.689C125.583 873.689 125.583 873.562 125.583 873.499L125.709 873.499L125.709 862.533L131.118 862.533L131.118 862.323L131.307 862.323L131.307 856.924L136.716 856.924L136.716 856.713L136.779 856.713L136.779 851.315L142.188 851.315L142.188 851.23L147.934 851.23L147.934 845.874L170.201 845.874L170.201 851.273C172.158 851.273 173.989 851.273 175.82 851.273C177.567 851.273 179.314 851.209 181.145 851.315L181.145 856.819L181.335 856.819L181.335 856.882L186.743 856.882L186.743 862.301L186.807 862.301L186.807 868.058L192.131 868.058L192.131 895.747L186.807 895.747L186.807 901.356L181.335 901.356L181.335 906.839L175.736 906.839L175.736 912.364L153.469 912.364L153.469 906.986L153.343 906.986L153.343 906.86L147.913 906.86L147.913 896.632C147.913 896.316 147.913 896 147.955 895.683L153.406 895.683L153.406 890.2L159.004 890.2L159.004 884.781L164.35 884.781L164.35 884.591L164.392 884.591L164.392 873.541C162.561 873.541 160.814 873.541 159.089 873.541L159.089 868.522C158.878 868.29 158.815 868.185 158.731 868.122C158.647 868.058 158.541 867.995 158.436 867.995C153.133 867.995 147.829 867.995 142.399 867.995L142.399 873.478L136.801 873.478L136.801 873.626L136.632 873.626L136.632 879.087L131.265 879.087L131.265 879.235C131.265 892.204 131.265 905.025 131.265 918.121L136.632 918.121L136.632 923.561L136.801 923.561L136.801 929.276L147.955 929.276L147.955 934.632C154.374 934.928 165.676 934.949 173.421 934.78L175.526 934.78L175.526 934.717C178.388 934.632 180.535 934.506 181.335 934.358L181.335 929.297L186.68 929.297L186.68 929.149L192.363 929.149L192.363 923.688L197.814 923.688L197.814 923.54L197.94 923.54L197.94 918.205L203.286 918.205L203.286 917.931L203.433 917.931L203.433 912.638L209.032 912.638L209.032 918.142L214.63 918.142L214.63 923.625L220.039 923.625L220.102 923.625L220.102 929.234L231.256 929.234L231.256 934.653L270.171 934.653L270.171 929.065L275.643 929.065L275.643 923.582L281.242 923.582L281.242 912.406L286.629 912.406L286.629 890.095C286.629 888.281 286.629 886.51 286.629 884.654L281.284 884.654L281.284 873.604L275.685 873.604L275.685 868.101L264.425 868.101L264.425 868.079L258.953 868.079L258.953 868.101L253.545 868.101L253.545 873.415L248.03 873.415L248.03 873.541L247.946 873.541L247.946 884.718L253.502 884.718L253.502 890.2L264.383 890.2L264.383 906.839L259.017 906.839L259.017 912.343L247.757 912.343L236.771 912.343L236.771 907.028C236.771 907.028 236.75 906.923 236.75 906.86L231.299 906.86L231.299 901.419L225.7 901.419L225.7 890.243L220.228 890.243L220.228 873.372L225.784 873.372L225.784 862.323L231.278 862.323L231.278 856.713L236.75 856.713L236.75 851.273L242.306 851.273L242.306 851.23C243.274 851.273 243.842 851.125 243.716 849.965C243.548 848.615 244.032 847.835 245.547 847.688C246.347 847.603 247.652 847.118 247.757 846.633C247.841 846.148 248.009 845.916 248.22 845.79L270.15 845.79L270.15 851.294L275.748 851.294L275.748 856.903L281.22 856.903L281.22 862.386L286.629 862.386L286.629 867.805L286.819 867.805L286.819 867.995L292.207 867.995L292.207 878.982L292.417 878.982L292.417 884.739L297.742 884.739L297.742 917.973L292.354 917.973L292.354 923.603L292.27 923.603L292.27 929.023L286.882 929.023L286.882 929.213L286.777 929.213C286.777 931.09 286.777 932.861 286.777 934.611L281.305 934.611L281.305 940.221L275.706 940.221L275.706 945.767L236.918 945.767L236.918 940.368L231.109 940.368L231.109 940.221L220.207 940.221L220.207 934.864L209.053 934.864L209.053 940.157L203.581 940.157L203.581 934.822L203.391 934.822L203.391 934.801L197.793 934.801L197.793 934.822L192.426 934.822L192.426 940.221L175.715 940.221L175.715 945.767L136.927 945.767L136.927 940.368L136.674 940.368L136.674 940.199L136.653 940.347ZM320.177 940.516L320.072 940.516L320.072 945.809L309.065 945.809L309.065 934.864L314.516 934.864L314.516 934.738L314.621 934.738L314.621 918.247L320.114 918.247L320.114 915.906C320.198 914.789 320.261 913.713 320.346 912.68L322.577 912.68C323.524 912.68 324.513 912.68 325.586 912.701L325.586 918.1L325.691 918.1L325.691 918.184L331.058 918.184L331.058 923.688L325.776 923.688L325.776 929.339L325.649 929.339C325.649 931.3 325.67 933.135 325.649 934.97C325.628 936.72 325.755 938.47 325.544 940.305L320.177 940.305L320.177 940.516ZM320.177 706.695L325.544 706.695C325.755 708.53 325.607 710.28 325.649 712.03C325.691 713.865 325.649 715.7 325.649 717.661L325.776 717.661L325.776 723.312L331.058 723.312L331.058 728.816L325.691 728.816L325.691 728.9L325.586 728.9L325.586 734.299C324.534 734.299 323.545 734.299 322.577 734.32L320.346 734.32C320.282 733.287 320.198 732.211 320.114 731.094L320.114 728.753L314.621 728.753L314.621 712.262L314.516 712.262L314.516 712.136L309.065 712.136L309.065 701.191L320.072 701.191L320.072 706.484L320.177 706.484L320.177 706.695ZM292.207 968.246L292.438 968.246L292.438 968.352L297.742 968.352L297.742 979.254L292.396 979.254L292.396 984.758L281.389 984.758C281.389 984.758 281.263 984.631 281.305 984.652L281.305 962.742C281.62 962.7 281.978 962.721 282.315 962.7L292.186 962.7L292.186 968.225L292.207 968.246ZM125.562 984.8L120.153 984.8L120.153 979.38L114.702 979.38L114.702 973.919L120.006 973.919L120.006 973.645L120.132 973.645C120.132 971.683 120.132 969.849 120.132 968.014C120.132 966.222 120.069 964.408 120.174 962.763C120.174 962.763 120.216 962.763 120.237 962.763L131.076 962.763L131.076 984.842L125.583 984.842L125.583 984.779L125.562 984.8ZM258.869 1001.48L242.369 1001.48L242.369 996.103L236.686 996.103L236.686 995.955L231.235 995.955L231.235 990.62L225.532 990.62L186.743 990.62L181.229 990.62L181.229 995.955L175.757 995.955L175.757 996.103L175.589 996.103L175.589 1001.52L153.596 1001.52L153.596 974.34C153.869 973.919 154.395 973.855 154.648 973.497C155.027 972.928 154.858 971.979 154.985 971.219C154.985 971.114 155.363 971.093 155.553 970.988C156.332 970.566 157.068 970.102 158.057 970.249C158.331 970.292 158.983 969.807 158.962 969.659C158.815 968.731 159.089 968.394 159.636 968.267L175.652 968.267L175.652 968.204C176.641 968.204 177.63 968.204 178.599 968.204C179.482 968.204 180.366 968.141 181.356 968.098L181.356 962.679L192.216 962.679L192.216 962.616L197.94 962.616L197.94 957.175L214.651 957.175L214.651 962.763L231.362 962.763L231.362 968.352L258.869 968.352L258.869 973.666L259.038 973.666L259.038 979.423L264.425 979.423L264.425 995.976L259.08 995.976L259.08 996.166L258.869 996.166L258.869 1001.48ZM264.447 1029.02C264.447 1029.02 264.447 1029.21 264.425 1029.32L236.897 1029.32L236.897 1024L264.468 1024L264.468 1029.04L264.447 1029.02ZM153.617 1023.96L175.631 1023.96L175.631 1023.77L181.25 1023.77L181.25 1018.37L186.659 1018.37L186.659 1018.29L186.849 1018.29L186.849 1012.91L192.237 1012.91L192.237 1023.9L181.356 1023.9C181.292 1025.2 181.229 1026.53 181.145 1028.07C180.219 1028.07 179.293 1027.97 178.43 1028.09C177.399 1028.26 175.841 1027.23 175.442 1029.25C175.442 1029.27 175.378 1029.3 175.315 1029.32L153.617 1029.32L153.617 1023.94L153.617 1023.96ZM197.898 1029.34L192.342 1029.34L192.342 1023.9L192.426 1023.9L192.426 1023.98L197.898 1023.98L197.898 1029.32L203.475 1029.32L203.475 1024L214.504 1024L214.504 1034.93L203.496 1034.93L203.496 1029.46L197.898 1029.46L197.898 1029.32L197.898 1029.34ZM225.763 1018.43L231.214 1018.43L231.214 1023.9C229.425 1023.9 227.615 1023.9 225.763 1023.9L225.763 1029.34L220.27 1029.34L220.27 1012.93L225.574 1012.93L225.574 1018.22L225.784 1018.22L225.784 1018.43L225.763 1018.43ZM353.325 829.025L347.748 829.025L347.748 834.381C345.938 834.466 344.107 834.571 342.297 834.613C342.255 834.613 342.213 834.613 342.171 834.613L342.171 834.592L336.72 834.592L336.72 829.151C336.72 829.151 336.699 829.046 336.699 828.983L331.332 828.983L331.332 817.975L336.699 817.975L336.699 817.806C336.72 815.993 336.72 814.285 336.72 812.366L342.171 812.366L342.171 812.345C342.171 812.345 342.255 812.345 342.297 812.345C344.107 812.387 345.938 812.492 347.748 812.577L347.748 817.933L353.325 817.933L353.325 829.004L353.325 829.025Z" fill="#E95A32"/>
<path d="M214.504 20.3297C212.652 20.161 211.283 20.3086 209.937 21.616C208.211 23.282 208.021 23.0711 205.769 23.0711C205.012 23.0711 204.233 23.0711 203.349 23.0711L203.349 17.3774L197.898 17.3774C197.898 15.6271 197.898 13.8769 197.898 12.0211L197.772 12.0211L186.743 12.0211L186.743 17.5883L181.419 17.5883L181.419 23.0078C181.398 26.7614 181.398 30.4096 181.398 34.1843L186.701 34.1843L186.701 39.6671L186.828 39.6671L186.828 39.8147L192.3 39.8147L192.3 56.4108L197.814 56.4108L197.814 67.7349L192.237 67.7349L192.237 84.2044L186.891 84.2044L186.891 84.352L175.294 84.352C175.294 84.352 175.231 84.3098 175.21 84.3098C168.054 84.3098 160.899 84.3098 153.617 84.3098L153.617 84.352L147.892 84.352L147.892 88.4852C146.377 88.4852 145.114 88.4852 143.851 88.4852C143.409 88.4852 142.609 88.5484 142.588 88.675C142.504 89.2654 142.294 89.5817 142.02 89.7504L136.927 89.7504L136.927 89.8559C136.927 89.8559 136.864 89.8559 136.843 89.8559L136.843 95.3598L131.328 95.3598L131.328 95.4652L125.688 95.4652L125.688 106.452L120.258 106.452L120.258 106.642L120.09 106.642L120.09 128.953L114.491 128.953L114.491 134.288L109.019 134.288L109.019 128.742L103.653 128.742L103.653 112.146C105.273 112.019 107.083 112.125 108.872 112.103C110.703 112.103 112.555 112.103 114.512 112.103L114.512 106.515L114.681 106.515L114.681 101.075L120.069 101.075L120.069 95.4652C120.069 93.5884 120.069 91.7327 120.069 89.8559C112.808 89.8559 105.652 89.8559 98.4962 89.8559C98.391 89.8559 98.2857 89.9191 98.2016 89.9824C98.1174 90.0457 98.0542 90.1511 97.97 90.2355C97.97 91.7327 98.0121 93.251 97.928 94.7482C97.928 94.917 97.6123 95.1911 97.3387 95.3176L96.8125 95.3176C96.118 95.1278 95.2761 94.5795 94.9394 94.8115C94.5816 95.0646 94.2028 95.2122 93.8239 95.3176L92.4559 95.3176L92.4559 95.4863C91.5088 95.4863 90.5407 95.2965 89.5936 95.423C88.7097 95.5285 87.8047 95.423 86.7944 95.423L86.7944 106.536L81.3855 106.536L81.3855 106.6C81.3645 115.962 81.3645 125.093 81.3645 134.478C81.3855 136.27 81.3855 138.041 81.3855 139.855L86.7524 139.855L86.7524 145.464L86.9207 145.464L86.9207 145.654L92.3507 145.654L92.3507 150.947L92.5191 150.947L92.5191 151.137L97.6544 151.137C97.6544 151.137 97.7596 151.242 97.8017 151.284L97.8017 167.88L92.3928 167.88C92.3928 168.682 92.3296 169.357 92.3928 170.031C92.5401 171.191 91.9298 171.254 90.9827 171.318C89.6778 171.402 88.415 171.761 87.1101 172.014C86.9207 172.71 86.605 173.068 86.2472 173.258L81.3434 173.258L81.3434 173.384C81.3434 173.384 81.2172 173.384 81.154 173.384L81.154 178.846L75.7451 178.846C75.7451 178.846 75.6399 178.846 75.5768 178.846L75.5768 173.469L69.8522 173.469C69.8522 173.469 69.7259 173.384 69.6417 173.384C64.338 173.384 59.0343 173.384 53.6044 173.384L53.6044 173.49L47.8798 173.49L47.8798 178.867L42.4709 178.867L42.4709 179.057L42.2815 179.057L42.2815 184.476L36.8726 184.476L36.8726 184.666L36.8094 184.666L36.8094 190.149L31.3795 190.149L31.3795 195.948C31.3795 195.948 31.2953 196.096 31.2953 196.18C31.2953 203.35 31.2953 210.52 31.2953 217.816L36.6831 217.816L36.6831 223.425L31.3163 223.425L31.3163 223.636L31.148 223.636L31.148 234.602L25.8443 234.602L25.8443 256.786L25.8864 256.786L25.8864 256.976L31.2111 256.976L31.2111 267.963L36.8726 267.963L36.8726 268.068L42.3657 268.068L42.3657 273.446L48.0271 273.446L48.0271 273.678L53.2677 273.678C53.2677 273.678 53.3729 273.762 53.3939 273.804L53.3939 290.168L48.0271 290.168L48.0271 290.421L47.8167 290.421L47.8167 295.777L42.4288 295.777L42.4288 295.883L36.7673 295.883L36.7673 301.302L20.2881 301.302L20.2881 295.925L20.1618 295.925C20.1618 295.44 20.1197 294.934 20.0355 294.449C19.341 294.449 18.8779 294.449 18.4149 294.449C16.3945 294.365 16.1419 294.09 15.9946 292.087C15.9525 291.539 15.9525 290.527 15.7841 290.506C15.1317 290.4 14.816 290.147 14.6687 289.831L14.6687 284.854L14.6055 284.854C14.6055 284.854 14.6055 284.77 14.6055 284.727C12.543 284.727 10.6909 284.727 8.85989 284.727C7.07095 284.727 5.26097 284.791 3.34575 284.664L3.34575 279.245L-1.91583 279.245L-1.91583 284.854L-2.00001 284.854L-2.00001 306.849L-1.91583 306.849L-1.91583 307.08L3.38785 307.08C3.45099 307.587 3.47203 308.093 3.49308 308.599C3.49308 309.231 3.49308 309.885 3.49308 310.497C3.49308 311.129 3.47203 311.762 3.49308 312.373C3.49308 312.437 3.49308 312.479 3.49308 312.542C3.49308 312.605 3.49308 312.648 3.49308 312.711C3.49308 313.344 3.49308 313.955 3.49308 314.588C3.49308 315.22 3.49308 315.853 3.49308 316.486C3.49308 316.992 3.45099 317.498 3.38785 318.004L-1.91583 318.004L-1.91583 318.236L-2.00001 318.236L-2.00001 340.23L-1.91583 340.23L-1.91583 345.84L3.34576 345.84L3.34576 340.42C5.23993 340.294 7.04991 340.378 8.85989 340.357C10.6909 340.357 12.543 340.357 14.6055 340.357C14.6055 340.315 14.6055 340.273 14.6055 340.23L14.6687 340.23L14.6687 335.254C14.816 334.937 15.1317 334.684 15.7841 334.579C15.9315 334.558 15.9525 333.546 15.9946 332.997C16.1419 330.994 16.3945 330.72 18.4149 330.635C18.8779 330.635 19.341 330.635 20.0355 330.635C20.0986 330.15 20.1407 329.665 20.1618 329.159L20.2881 329.159L20.2881 323.782L36.7673 323.782L36.7673 329.201L42.4288 329.201L42.4288 329.307L47.8167 329.307L47.8167 334.663L48.0271 334.663L48.0271 334.916L53.3939 334.916L53.3939 351.28C53.3729 351.323 53.3308 351.365 53.2677 351.407L48.0271 351.407L48.0271 351.639L42.3657 351.639L42.3657 357.016L36.8726 357.016L36.8726 357.122L31.2111 357.122L31.2111 368.108L25.8864 368.108L25.8864 368.298L25.8443 368.298L25.8443 390.482L31.148 390.482L31.148 401.448L31.3163 401.448L31.3163 401.659L36.6831 401.659L36.6831 407.268L31.2953 407.268C31.2953 414.565 31.2953 421.734 31.2953 428.904C31.2953 428.989 31.3374 429.073 31.3795 429.136L31.3795 434.935L36.8094 434.935L36.8094 440.418L36.8726 440.418L36.8726 440.608L42.2815 440.608L42.2815 446.027L42.4709 446.027L42.4709 446.217L47.8798 446.217L47.8798 451.595L53.6044 451.595L53.6044 451.7C59.0344 451.7 64.338 451.7 69.6417 451.7C69.7048 451.7 69.768 451.658 69.8522 451.616L75.5768 451.616L75.5768 446.238C75.5768 446.238 75.682 446.238 75.7451 446.238L81.154 446.238L81.154 451.7C81.154 451.7 81.2803 451.7 81.3435 451.7L81.3435 451.827L86.2473 451.827C86.605 452.016 86.9207 452.375 87.1102 453.071C88.394 453.324 89.6778 453.682 90.9827 453.767C91.9298 453.83 92.5401 453.893 92.3928 455.053C92.3086 455.728 92.3928 456.403 92.3928 457.204L97.8017 457.204L97.8017 473.8C97.8017 473.8 97.7175 473.884 97.6544 473.948L92.5191 473.948L92.5191 474.137L92.3507 474.137L92.3507 479.43L86.9207 479.43L86.9207 479.62L86.7524 479.62L86.7524 485.23L81.3856 485.23L81.3856 490.607C81.3645 499.97 81.3645 509.101 81.3645 518.485C81.3645 518.485 81.3856 518.527 81.3856 518.548L86.7945 518.548L86.7945 529.661C87.8047 529.661 88.7097 529.577 89.5936 529.661C90.5407 529.767 91.4878 529.598 92.4559 529.598L92.4559 529.767L93.8239 529.767C94.2028 529.872 94.5606 530.02 94.9394 530.273C95.2761 530.505 96.0969 529.957 96.8125 529.767L97.3387 529.767C97.6123 529.893 97.928 530.146 97.928 530.336C98.0122 531.833 97.9701 533.352 97.9701 534.849C98.0543 534.933 98.1174 535.039 98.2016 535.102C98.2858 535.165 98.391 535.228 98.4962 535.228C105.652 535.228 112.808 535.228 120.069 535.228L120.069 529.619C120.069 527.658 120.069 525.95 120.069 524.01L114.681 524.01L114.681 518.569L114.512 518.569L114.512 512.981C112.555 512.981 110.724 512.981 108.872 512.981C107.083 512.981 105.273 513.065 103.653 512.939L103.653 496.343L109.019 496.343L109.019 490.797L114.491 490.797L114.491 496.132L120.09 496.132L120.09 518.443L120.258 518.443L120.258 518.632L125.688 518.632L125.688 529.619L131.328 529.619L131.328 529.725L136.843 529.725L136.843 535.228C136.843 535.228 136.906 535.228 136.927 535.228L136.927 535.334L142.02 535.334C142.294 535.503 142.504 535.798 142.588 536.409C142.588 536.536 143.409 536.599 143.851 536.599C145.114 536.62 146.377 536.599 147.892 536.599L147.892 540.732L153.617 540.732L153.617 540.775C160.899 540.775 168.054 540.775 175.21 540.775C175.252 540.775 175.273 540.732 175.294 540.732L186.891 540.732L186.891 540.88L192.237 540.88L192.237 557.35L197.814 557.35L197.814 568.674L192.3 568.674L192.3 585.27L186.828 585.27L186.828 585.417L186.701 585.417L186.701 590.9L181.398 590.9L181.398 602.077C181.419 603.869 181.419 605.661 181.419 607.496L186.743 607.496L186.743 613L197.772 613L197.898 613C197.898 611.144 197.898 609.394 197.898 607.644L203.349 607.644L203.349 601.95C204.233 601.95 205.012 601.95 205.769 601.95C208.021 601.95 208.211 601.739 209.937 603.405C211.284 604.713 212.652 604.839 214.504 604.691L214.504 613L225.742 613L225.742 607.623L231.13 607.623L231.13 607.433L231.341 607.433L231.341 602.013L236.686 602.013L236.686 601.823C236.686 599.989 236.686 598.281 236.686 596.32L231.214 596.32L231.214 590.9L231.13 590.9L231.13 590.71L225.742 590.71L225.742 585.291L225.532 585.291L225.532 579.639L220.249 579.639L220.249 546.278L225.532 546.278L225.532 541.112C225.721 540.943 225.805 540.859 225.89 540.796C225.974 540.732 226.079 540.69 226.184 540.69C240.748 540.69 255.312 540.69 269.982 540.69L269.982 535.186L281.136 535.186L281.136 529.682L286.608 529.682L286.608 524.094L292.207 524.094L292.207 518.4L292.333 518.4L292.333 507.351L297.847 507.351C297.847 507.351 297.847 507.266 297.847 507.224L297.931 507.224L297.931 496.427C298.1 496.195 298.394 496.048 298.984 496.026C299.089 496.026 299.215 495.436 299.215 495.12C299.236 494.065 299.215 493.032 299.362 491.556C299.173 491.556 299.005 491.956 298.899 491.935C298.563 491.872 298.247 491.703 297.931 491.556L297.931 491.345C298.079 491.05 298.226 490.712 298.457 490.628C298.668 490.544 299.047 490.902 299.362 491.556C300.267 491.978 301.299 491.935 302.351 491.978C303.046 491.999 303.403 491.872 303.445 491.071C303.445 490.881 304.119 490.607 304.498 490.607C305.024 490.586 305.55 490.586 306.097 490.586C307.044 490.586 307.991 490.586 308.96 490.712C308.96 491.703 308.938 492.673 308.96 493.622C308.96 494.297 308.896 495.288 309.086 495.689L309.086 496.195L309.633 496.195C310.054 496.575 310.264 497.081 310.643 497.355C311.19 497.756 312.18 497.524 312.958 497.545C313.4 497.545 313.842 497.545 314.368 497.545L314.368 507.203L309.023 507.203L309.023 507.372L308.875 507.372L308.875 512.812L303.424 512.812L303.424 512.981L297.847 512.981C297.847 514.942 297.847 516.777 297.847 518.611C297.847 520.404 297.91 522.217 297.784 524.136L292.375 524.136L292.375 529.64L292.438 529.64L292.438 535.039L297.931 535.039L297.931 535.123C303.361 535.123 308.665 535.123 313.969 535.123C314.053 535.123 314.137 535.081 314.221 535.039L319.946 535.039L319.946 529.682L325.544 529.682L325.544 529.556L325.691 529.556L325.691 524.073L331.1 524.073L331.1 485.061L331.016 485.061L331.016 484.934L325.649 484.934L325.649 479.578C325.628 477.701 325.628 475.824 325.628 473.884L320.177 473.884L320.177 462.834C320.177 460.979 320.177 459.102 320.177 457.225L325.523 457.225L325.523 451.742L331.121 451.742L331.121 451.573L331.311 451.573L331.311 446.217L336.72 446.217L336.72 451.489L342.465 451.489L342.465 451.573L359.05 451.573L359.05 451.489L364.543 451.489L364.543 446.175L375.571 446.175L375.571 440.397L375.676 440.397L375.676 434.999L381.169 434.999L381.169 434.914L381.275 434.914L381.275 396.007L386.642 396.007L386.642 395.923C386.663 384.704 386.663 373.718 386.663 362.478L381.317 362.478L381.317 357.079L381.085 357.079L381.085 356.995L375.613 356.995L375.613 351.386L364.459 351.386L364.459 345.776L359.05 345.776L359.05 343.752C359.134 342.761 359.408 341.749 359.723 340.8C359.807 340.547 360.418 340.336 360.797 340.315C361.954 340.251 363.091 340.294 364.501 340.294L364.606 340.294L364.606 334.769L369.973 334.769L369.973 329.286L375.655 329.286C375.655 328.485 375.655 327.936 375.655 327.388C375.655 326.692 375.424 325.827 375.761 325.364C376.034 324.984 376.981 325.089 377.634 324.984C377.739 324.984 377.928 325.026 377.97 324.984C378.539 324.246 379.212 323.866 379.928 323.698L392.24 323.698L392.24 329.096L397.838 329.096L397.838 340.273L408.866 340.273L408.866 345.713C410.761 346.051 412.55 345.755 414.465 345.924L414.465 340.378L420.021 340.378L420.021 329.201L419.937 329.201L419.937 329.075L414.612 329.075L414.612 295.883L419.937 295.883L419.937 295.756L420.021 295.756L420.021 284.58L414.465 284.58L414.465 279.034C412.55 279.203 410.761 278.907 408.866 279.245L408.866 284.685L397.838 284.685L397.838 295.862L392.24 295.862L392.24 301.26L379.928 301.26C379.212 301.07 378.56 300.712 377.97 299.974C377.928 299.911 377.739 299.974 377.634 299.974C376.981 299.868 376.034 299.974 375.761 299.594C375.424 299.151 375.655 298.266 375.655 297.57C375.655 297.022 375.655 296.473 375.655 295.672L369.973 295.672L369.973 290.189L364.606 290.189L364.606 284.664L364.501 284.664C363.112 284.664 361.954 284.706 360.797 284.643C360.418 284.643 359.807 284.432 359.723 284.158C359.408 283.209 359.134 282.197 359.05 281.206L359.05 279.181L364.459 279.181L364.459 273.572L375.613 273.572L375.613 267.963L381.085 267.963L381.085 267.878L381.317 267.878L381.317 262.48L386.663 262.48L386.663 229.035C386.663 229.035 386.642 228.972 386.642 228.95L381.275 228.95L381.275 190.044L381.169 190.044L381.169 189.959L375.676 189.959L375.676 184.561L375.571 184.561L375.571 178.783L364.543 178.783L364.543 173.469L359.05 173.469L359.05 173.384L342.465 173.384L342.465 173.469L336.72 173.469L336.72 178.741L331.311 178.741L331.311 173.384L331.121 173.384L331.121 173.216L325.523 173.216L325.523 167.733L320.177 167.733L320.177 162.123C320.177 158.412 320.177 154.743 320.177 151.074L325.628 151.074L325.628 145.38C325.649 143.587 325.649 141.921 325.649 140.024L331.016 140.024L331.016 139.897L331.1 139.897L331.1 100.885L325.691 100.885L325.691 95.402L325.544 95.402L325.544 95.2754L319.946 95.2754L319.946 89.9191L314.221 89.9191C314.221 89.9191 314.053 89.8348 313.969 89.8348C308.665 89.8348 303.361 89.8348 297.931 89.8348L297.931 89.9191L292.438 89.9191L292.438 95.3176L292.375 95.3176L292.375 100.821L297.784 100.821C297.91 102.719 297.826 104.533 297.847 106.346C297.847 108.181 297.847 110.016 297.847 111.977L303.424 111.977L303.424 112.146L308.875 112.146L308.875 117.586L309.023 117.586L309.023 117.755L314.368 117.755L314.368 127.413C313.821 127.413 313.4 127.413 312.958 127.413C312.159 127.434 311.169 127.223 310.643 127.603C310.264 127.877 310.054 128.362 309.633 128.763L309.086 128.763L309.086 129.269C308.896 129.669 308.981 130.661 308.96 131.335C308.938 132.305 308.96 133.254 308.96 134.246C307.991 134.372 307.023 134.393 306.097 134.372C305.571 134.372 305.024 134.372 304.519 134.351C304.14 134.351 303.487 134.056 303.466 133.887C303.424 133.086 303.067 132.938 302.372 132.98C301.341 133.022 300.288 132.98 299.383 133.402C299.068 134.056 298.689 134.414 298.478 134.33C298.247 134.246 298.1 133.908 297.952 133.613L297.952 133.402C298.268 133.254 298.584 133.086 298.92 133.001C299.026 133.001 299.194 133.36 299.383 133.381C299.236 131.926 299.257 130.871 299.236 129.817C299.236 129.501 299.089 128.931 299.005 128.91C298.436 128.889 298.121 128.721 297.952 128.51L297.952 117.713L297.868 117.713C297.868 117.713 297.868 117.628 297.868 117.586L292.354 117.586L292.354 106.536L292.228 106.536L292.228 100.843L286.629 100.843L286.629 95.2543L281.157 95.2543L281.157 89.7504L270.003 89.7504L270.003 84.2465C255.312 84.2465 240.748 84.2465 226.205 84.2465C226.1 84.2465 225.995 84.1833 225.911 84.1411C225.805 84.0779 225.742 83.9935 225.553 83.8248L225.553 78.6583L220.27 78.6583L220.27 45.2976L225.553 45.2976L225.553 39.646L225.763 39.646L225.763 34.2265L231.151 34.2265L231.151 34.0367L231.235 34.0367L231.235 28.6172L236.707 28.6172L236.707 23.1132C236.707 23.1132 236.707 22.9867 236.707 22.9234L231.362 22.9234L231.362 17.5039L231.151 17.5039L231.151 17.2931L225.763 17.2931L225.763 11.9157L214.525 11.9157L214.525 20.2453L214.504 20.3297ZM264.447 106.979L264.447 112.019L236.876 112.019L236.876 106.705L264.404 106.705C264.404 106.705 264.404 106.895 264.425 107L264.447 106.979ZM197.898 106.515L203.496 106.515L203.496 101.053L214.504 101.053L214.504 111.977L203.475 111.977L203.475 106.663L197.898 106.663L197.898 111.998L192.426 111.998L192.426 112.082L192.342 112.082L192.342 106.642L197.898 106.642L197.898 106.494L197.898 106.515ZM186.638 117.628L181.229 117.628L181.229 112.23L175.61 112.23L175.61 112.04L153.596 112.04L153.596 106.663L175.294 106.663C175.294 106.663 175.421 106.705 175.421 106.726C175.82 108.75 177.357 107.717 178.409 107.886C179.272 108.033 180.198 107.907 181.124 107.907C181.208 109.446 181.271 110.775 181.335 112.082L192.216 112.082L192.216 123.069L186.828 123.069L186.828 117.692L186.638 117.692L186.638 117.607L186.638 117.628ZM225.763 112.103C227.636 112.103 229.425 112.103 231.214 112.103L231.214 117.586L225.763 117.586L225.763 117.797L225.553 117.797L225.553 123.09L220.249 123.09L220.249 106.684L225.742 106.684L225.742 112.125L225.763 112.103ZM258.869 139.855L259.08 139.855L259.08 140.045L264.425 140.045L264.425 156.599L259.038 156.599L259.038 162.355L258.869 162.355L258.869 167.67L231.362 167.67L231.362 173.258L214.651 173.258L214.651 178.846L197.94 178.846L197.94 173.405L192.216 173.405L192.216 173.342L181.356 173.342L181.356 167.923C180.366 167.88 179.482 167.817 178.599 167.817C177.609 167.817 176.62 167.817 175.652 167.817L175.652 167.754L159.636 167.754C159.089 167.627 158.815 167.29 158.962 166.362C158.983 166.215 158.331 165.729 158.057 165.772C157.068 165.94 156.332 165.455 155.553 165.034C155.363 164.928 155.006 164.907 154.985 164.802C154.858 164.021 155.027 163.094 154.648 162.524C154.395 162.166 153.869 162.081 153.596 161.681L153.596 134.499L175.589 134.499L175.589 139.918L175.757 139.918L175.757 140.066L181.229 140.066L181.229 145.401L186.743 145.401L225.532 145.401L231.235 145.401L231.235 140.066L236.686 140.066L236.686 139.918L242.369 139.918L242.369 134.541L258.869 134.541L258.869 139.855ZM297.763 167.648L292.459 167.648L292.459 167.754L292.228 167.754L292.228 173.279L282.357 173.279C282.02 173.279 281.683 173.279 281.347 173.237L281.347 151.327C281.347 151.327 281.368 151.284 281.431 151.221L292.438 151.221L292.438 156.725L297.784 156.725L297.784 167.627L297.763 167.648ZM120.174 173.216C120.069 171.571 120.153 169.757 120.132 167.965C120.132 166.13 120.132 164.296 120.132 162.334L120.006 162.334L120.006 162.06L114.702 162.06L114.702 156.599L120.153 156.599L120.153 151.179L125.562 151.179L125.562 151.116L131.055 151.116L131.055 173.195L120.216 173.195C120.216 173.195 120.174 173.195 120.153 173.195L120.174 173.216ZM358.987 234.56L364.396 234.56L364.396 251.029C364.396 251.029 364.332 251.093 364.29 251.135C364.206 251.198 364.122 251.24 364.017 251.261C358.734 251.261 353.536 251.261 348.358 251.261C348.253 251.261 348.148 251.198 348.064 251.135C348.022 251.114 348 251.071 347.958 251.029L347.958 240.275L342.423 240.275L342.423 234.518L347.874 234.518L347.874 195.674L358.924 195.674L358.924 234.56L358.945 234.56L358.987 234.56ZM331.058 279.055L325.797 279.055L325.797 284.791L325.523 284.791L325.523 290.084L320.219 290.084L320.219 290.252L320.03 290.252L320.03 295.693L309.086 295.693L309.086 301.471L309.044 301.471L309.044 323.508L309.086 323.508L309.086 329.286L320.03 329.286L320.03 334.726L320.219 334.726L320.219 334.895L325.523 334.895L325.523 340.188L325.797 340.188L325.797 345.924L331.058 345.924L331.058 368.045L325.733 368.045L325.733 373.57L314.6 373.57L314.6 357.058L314.495 357.058L314.495 356.953L309.002 356.953L309.002 346.029L308.896 346.029L308.896 345.798L303.53 345.798C303.319 343.984 303.466 342.234 303.424 340.504C303.382 338.67 303.424 336.835 303.424 334.874L297.931 334.874L297.931 329.265L297.868 329.265C297.868 329.265 297.868 329.159 297.868 329.117L292.354 329.117L292.354 323.677C292.354 323.677 292.354 323.571 292.354 323.529L286.903 323.529L286.903 318.194L281.199 318.194L281.199 318.046L275.748 318.046L275.748 312.605L264.636 312.605L264.636 312.458L275.748 312.458L275.748 307.017L281.199 307.017L281.199 306.87L286.903 306.87L286.903 301.534L292.354 301.534L292.354 301.387C292.354 299.531 292.354 297.781 292.354 295.946L297.868 295.946C297.868 295.946 297.868 295.841 297.868 295.799L297.931 295.799L297.931 290.189L303.424 290.189C303.424 288.228 303.403 286.393 303.424 284.559C303.445 282.83 303.319 281.079 303.53 279.266L308.896 279.266L308.896 279.034L309.002 279.034L309.002 268.11L314.495 268.11L314.495 268.005L314.6 268.005L314.6 251.493L325.733 251.493L325.733 257.018L331.058 257.018L331.058 279.139L331.058 279.055ZM364.311 373.844C364.311 373.844 364.396 373.907 364.417 373.95L364.417 390.419L359.008 390.419C358.987 403.43 358.987 416.336 358.987 429.305L347.937 429.305L347.937 390.461L342.486 390.461L342.486 384.704L348.022 384.704L348.022 373.95C348.022 373.95 348.085 373.865 348.127 373.844C348.211 373.781 348.316 373.718 348.421 373.718C353.599 373.718 358.776 373.718 364.08 373.718C364.164 373.718 364.269 373.781 364.353 373.844L364.311 373.844ZM53.5413 413.299C53.6886 413.067 53.9201 412.856 54.2358 412.667L58.9291 412.667L58.9291 401.49L58.866 401.49L58.866 396.05L53.4781 396.05L53.4781 390.44L53.3729 390.44L48.0271 390.44L48.0271 373.718L58.4871 373.718C60.3603 373.718 62.2123 373.718 64.0644 373.718C64.1697 373.718 64.2749 373.781 64.3591 373.844C64.4012 373.886 64.4433 373.929 64.5064 374.013L64.5064 379.243L64.7169 379.243L64.7169 379.327L69.9784 379.327L69.9784 395.965L64.5906 395.965L64.5906 396.071L64.4643 396.071L64.4643 429.263L53.5834 429.263C53.5834 428.989 53.5413 428.672 53.5202 428.356L53.5202 413.299L53.5413 413.299ZM86.7524 368.087L84.2268 368.087C82.8588 367.94 82.7957 367.434 82.6483 365.198C82.6062 364.418 82.5641 363.849 81.5539 363.912C81.5118 363.912 81.4066 363.638 81.3224 363.3L81.3224 351.449L86.8997 351.449L86.8997 340.273L92.3717 340.273L92.3717 334.663L97.9701 334.663L97.9701 329.054L103.316 329.054C103.526 324.351 103.589 317.983 103.547 312.458C103.61 306.954 103.547 300.585 103.316 295.862L97.9701 295.862L97.9701 290.252L92.3717 290.252L92.3717 284.643L86.8997 284.643L86.8997 273.467L81.3224 273.467L81.3224 261.615C81.3855 261.299 81.4908 261.004 81.5539 261.004C82.5641 261.067 82.5852 260.498 82.6483 259.717C82.7746 257.503 82.8588 256.997 84.2268 256.828L86.7524 256.828L86.7524 256.554C86.7524 256.554 86.8365 256.533 86.8786 256.512L86.8786 251.325L92.2244 251.325L92.2244 251.177C92.2244 251.177 92.4138 251.177 92.498 251.177C94.2449 251.198 95.9917 251.071 97.8227 251.282L97.8227 262.269L98.0332 262.269L98.0332 262.332L103.421 262.332L103.421 273.446L103.505 273.446L103.505 279.076L108.893 279.076L108.893 284.496L109.104 284.496L109.104 284.685L114.491 284.685L114.491 290.105L114.576 290.105C114.576 290.105 114.576 290.252 114.576 290.337C114.576 292.15 114.512 293.943 114.639 295.862L120.174 295.862L120.174 301.366L131.16 301.366L131.16 306.827L131.328 306.827L131.328 306.87C133.286 306.87 135.117 306.849 136.948 306.87C138.758 306.891 140.568 306.743 142.483 306.975L142.483 317.898C140.589 318.152 138.758 317.983 136.948 318.004C135.117 318.046 133.286 318.004 131.328 318.004L131.328 318.046L131.16 318.046L131.16 323.508L120.174 323.508L120.174 329.012L114.639 329.012C114.512 330.91 114.597 332.723 114.576 334.537C114.576 334.621 114.576 334.684 114.576 334.769L114.491 334.769L114.491 340.188L109.104 340.188L109.104 340.378L108.893 340.378L108.893 345.798L103.505 345.798L103.505 351.428L103.421 351.428L103.421 362.541L98.0332 362.541L98.0332 362.604L97.8227 362.604L97.8227 373.591C95.9917 373.802 94.2449 373.654 92.498 373.697C92.4138 373.697 92.3086 373.697 92.2244 373.697L92.2244 373.549L86.8786 373.549L86.8786 368.361C86.8786 368.361 86.7945 368.34 86.7524 368.319L86.7524 368.045L86.7524 368.087ZM60.4024 310.897C60.4444 310.117 60.4024 309.316 60.4024 308.282L64.6327 308.282L64.6327 301.534L75.6399 301.534L75.6399 307.059L80.9857 307.059C81.0699 308.873 81.1751 310.686 81.2172 312.521C81.1751 314.335 81.0699 316.169 80.9857 317.983L75.6399 317.983L75.6399 323.508L64.6327 323.508L64.6327 316.76L60.4024 316.76C60.4024 315.726 60.4445 314.925 60.4024 314.145C60.3603 313.575 60.676 312.732 59.9393 312.542C60.676 312.331 60.3603 311.509 60.4024 310.94L60.4024 310.897ZM48.0271 234.56L53.3729 234.56L53.4781 234.56L53.4781 228.95L58.866 228.95L58.866 223.51L58.9291 223.51L58.9291 212.333L54.2358 212.333C53.9201 212.144 53.6675 211.933 53.5412 211.701L53.5412 196.644C53.5412 196.328 53.5833 196.011 53.6044 195.737L64.4853 195.737L64.4853 228.929L64.6116 228.929L64.6116 229.035L69.9995 229.035L69.9995 245.673L64.7379 245.673L64.7379 245.757L64.5274 245.757L64.5274 250.987C64.5274 250.987 64.4222 251.114 64.3801 251.156C64.2959 251.219 64.1907 251.282 64.0855 251.282C62.1702 251.282 60.234 251.282 58.3188 251.282L48.0482 251.282L48.0482 234.56L48.0271 234.56ZM136.906 190.107L175.694 190.107L175.694 195.653L192.405 195.653L192.405 201.051L197.772 201.051L197.772 201.073L203.37 201.073L203.37 201.051L203.559 201.051L203.559 195.716L209.032 195.716L209.032 201.009L220.186 201.009L220.186 195.653L231.088 195.653L231.088 195.505L236.897 195.505L236.897 190.107L275.685 190.107L275.685 195.653L281.284 195.653L281.284 201.262L286.756 201.262C286.777 203.034 286.756 204.784 286.756 206.661L286.861 206.661L286.861 206.851L292.249 206.851L292.249 212.27L292.333 212.27L292.333 217.901L297.721 217.901L297.721 251.135L292.396 251.135L292.396 256.892L292.186 256.892L292.186 267.878L286.798 267.878L286.798 268.068L286.608 268.068L286.608 273.488L281.199 273.488L281.199 278.971L275.727 278.971L275.727 284.58L270.129 284.58L270.129 290.084L248.199 290.084C247.988 289.957 247.82 289.725 247.736 289.24C247.652 288.755 246.326 288.27 245.526 288.186C244.011 288.038 243.526 287.237 243.695 285.908C243.842 284.749 243.253 284.601 242.285 284.643L242.285 284.601L236.729 284.601L236.729 279.16L231.256 279.16L231.256 273.551L225.763 273.551L225.763 262.501L220.207 262.501L220.207 245.631L225.679 245.631L225.679 234.454L231.278 234.454L231.278 229.014L236.729 229.014L236.729 228.845C236.75 227.01 236.75 225.302 236.75 223.531L247.736 223.531L258.996 223.531L258.996 229.035L264.362 229.035L264.362 245.673L253.481 245.673L253.481 251.156L247.925 251.156L247.925 262.332L248.009 262.332L248.009 262.459L253.523 262.459L253.523 267.773L258.932 267.773L258.932 267.794L264.404 267.794L264.404 267.773L275.664 267.773L275.664 262.269L281.263 262.269L281.263 251.219L286.608 251.219L286.608 245.778C286.608 238.25 286.608 230.996 286.608 223.468L281.22 223.468L281.22 212.291L275.622 212.291L275.622 206.808L270.15 206.808L270.15 201.22L231.235 201.22L231.235 206.64L220.081 206.64L220.081 212.249L220.018 212.249L214.609 212.249L214.609 217.732L209.011 217.732L209.011 223.236L203.412 223.236L203.412 217.943L203.265 217.943L203.265 217.669L197.919 217.669L197.919 212.333L197.793 212.333L197.793 212.186L192.342 212.186L192.342 206.724L186.659 206.724L186.659 206.576L181.314 206.576L181.314 201.515C180.514 201.368 178.367 201.241 175.505 201.157L175.505 201.094C174.789 201.094 174.095 201.094 173.4 201.094C165.655 200.925 154.374 200.946 147.955 201.241L147.955 206.597L136.801 206.597L136.801 212.312L136.632 212.312L136.632 217.753L131.265 217.753L131.265 256.639C131.265 256.639 131.265 256.744 131.265 256.786L136.632 256.786L136.632 262.248L136.801 262.248L136.801 262.396L142.399 262.396L142.399 267.878C147.829 267.878 153.132 267.878 158.436 267.878C158.541 267.878 158.647 267.815 158.731 267.752C158.815 267.689 158.878 267.583 159.089 267.351L159.089 262.332C160.814 262.332 162.561 262.332 164.392 262.332L164.392 251.282L164.35 251.282L164.35 251.093L159.004 251.093L159.004 245.673L153.406 245.673L153.406 240.19L147.955 240.19C147.913 239.874 147.934 239.558 147.913 239.241L147.913 229.014L153.343 229.014L153.343 228.887L153.469 228.887L153.469 223.51L175.736 223.51L175.736 229.035L181.335 229.035L181.335 234.518L186.807 234.518L186.807 240.127L192.131 240.127L192.131 267.815L186.807 267.815L186.807 273.572L186.743 273.572L186.743 278.992L181.335 278.992L181.335 279.055L181.145 279.055L181.145 284.559C179.314 284.664 177.546 284.601 175.82 284.601C173.989 284.601 172.158 284.601 170.201 284.601L170.201 289.999L147.934 289.999L147.934 284.643L142.188 284.643L142.188 284.559L136.779 284.559L136.779 279.16L136.716 279.16L136.716 278.949L131.307 278.949L131.307 273.551L131.118 273.551L131.118 273.34L125.709 273.34L125.709 262.374L125.583 262.374C125.583 262.374 125.583 262.248 125.583 262.185L120.216 262.185L120.216 245.757L115.502 245.757C114.954 245.652 114.66 245.42 114.534 245.125L114.534 243.649C114.534 243.48 114.576 243.311 114.555 243.164C114.534 242.552 114.534 241.941 114.534 241.329L114.534 225.977C114.534 225.555 114.534 225.134 114.576 224.712C114.576 224.522 114.576 224.29 114.534 224.079L114.534 223.299L120.09 223.299C120.09 219.841 120.09 216.509 120.111 213.177C120.111 212.839 120.553 212.207 120.679 212.228C122.489 212.586 122.026 211.3 122.194 210.33C122.321 209.613 122.573 208.812 123.036 208.263C123.31 207.947 124.089 207.989 124.636 208.01C125.351 208.031 125.667 207.842 125.667 207.061C125.625 205.164 125.667 203.245 125.667 201.136L131.16 201.136L131.16 200.967L131.307 200.967L131.307 195.526L136.653 195.526L136.653 195.358L136.906 195.358L136.906 189.959L136.906 190.107ZM246.389 312.5C243.274 312.5 240.159 312.5 236.813 312.5L236.813 318.046L225.784 318.046L225.784 323.529L220.186 323.529L220.186 323.655L220.06 323.655L220.06 329.138L214.609 329.138L214.609 329.265L214.483 329.265L214.483 334.748L209.032 334.748L209.032 334.874L208.905 334.874L208.905 340.23L203.581 340.23L203.581 334.874L203.454 334.874L203.454 334.726L198.003 334.726L198.003 329.286L197.877 329.286L197.877 329.138L192.426 329.138L192.426 323.698C192.426 323.698 192.426 323.592 192.426 323.55L186.975 323.55L186.975 318.215L181.292 318.215L181.292 318.067L175.841 318.067L175.841 312.605L164.729 312.605L164.729 312.458L175.841 312.458L175.841 306.996L181.292 306.996L181.292 306.849L186.975 306.849L186.975 301.513L192.426 301.513L192.426 301.366C192.426 299.51 192.426 297.76 192.426 295.925L197.877 295.925L197.877 295.777L198.003 295.777L198.003 290.337L203.454 290.337L203.454 290.189L203.581 290.189L203.581 284.833L208.905 284.833L208.905 290.189L209.032 290.189L209.032 290.316L214.483 290.316L214.483 295.799L214.609 295.799L214.609 295.925L220.06 295.925L220.06 301.408L220.186 301.408L220.186 301.534L225.784 301.534L225.784 307.017L236.813 307.017L236.813 312.563C240.159 312.563 243.274 312.563 246.389 312.563L246.389 312.5ZM108.935 190.17C108.935 190.17 108.935 190.318 108.935 190.381L108.935 195.505L103.526 195.505L103.526 195.632L103.379 195.632L103.379 206.682L97.928 206.682L97.928 206.808L97.7806 206.808L97.7806 217.858L92.4559 217.858L92.4559 223.383L86.9207 223.383L86.9207 201.136L92.4138 201.136L92.4138 195.526L97.8859 195.526L97.8859 190.191L108.935 190.191L108.935 190.17ZM97.8859 429.474L92.4138 429.474L92.4138 423.864L86.9207 423.864L86.9207 401.617L92.4559 401.617L92.4559 407.142L97.7806 407.142L97.7806 418.192L97.928 418.192L97.928 418.318L103.379 418.318L103.379 429.368L103.526 429.368L103.526 429.495L108.935 429.495L108.935 434.619C108.935 434.619 108.935 434.767 108.935 434.83L97.8859 434.83L97.8859 429.495L97.8859 429.474ZM136.653 429.347L131.307 429.347L131.307 423.906L131.16 423.906L131.16 423.738L125.667 423.738C125.667 421.608 125.646 419.71 125.667 417.812C125.667 417.032 125.351 416.842 124.636 416.863C124.089 416.863 123.31 416.926 123.036 416.61C122.573 416.062 122.321 415.282 122.194 414.543C122.047 413.573 122.489 412.287 120.679 412.646C120.553 412.667 120.111 412.034 120.111 411.697C120.069 408.365 120.09 405.033 120.09 401.575L114.534 401.575L114.534 400.794C114.576 400.562 114.597 400.351 114.576 400.162C114.534 399.74 114.555 399.318 114.534 398.896L114.534 383.545C114.534 382.933 114.534 382.321 114.555 381.71C114.555 381.562 114.555 381.394 114.534 381.225L114.534 379.749C114.66 379.454 114.954 379.222 115.502 379.116L120.216 379.116L120.216 362.689L125.583 362.689C125.583 362.689 125.583 362.562 125.583 362.499L125.709 362.499L125.709 351.533L131.118 351.533L131.118 351.323L131.307 351.323L131.307 345.924L136.716 345.924L136.716 345.713L136.779 345.713L136.779 340.315L142.188 340.315L142.188 340.23L147.934 340.23L147.934 334.874L170.201 334.874L170.201 340.273C172.158 340.273 173.989 340.273 175.82 340.273C177.567 340.273 179.314 340.209 181.145 340.315L181.145 345.819L181.335 345.819L181.335 345.882L186.743 345.882L186.743 351.301L186.807 351.301L186.807 357.058L192.131 357.058L192.131 384.747L186.807 384.747L186.807 390.356L181.335 390.356L181.335 395.839L175.736 395.839L175.736 401.364L153.469 401.364L153.469 395.986L153.343 395.986L153.343 395.86L147.913 395.86L147.913 385.632C147.913 385.316 147.913 385 147.955 384.683L153.406 384.683L153.406 379.2L159.004 379.2L159.004 373.781L164.35 373.781L164.35 373.591L164.392 373.591L164.392 362.541C162.561 362.541 160.814 362.541 159.089 362.541L159.089 357.522C158.878 357.29 158.815 357.185 158.731 357.122C158.647 357.058 158.541 356.995 158.436 356.995C153.133 356.995 147.829 356.995 142.399 356.995L142.399 362.478L136.801 362.478L136.801 362.626L136.632 362.626L136.632 368.087L131.265 368.087L131.265 368.235C131.265 381.204 131.265 394.025 131.265 407.121L136.632 407.121L136.632 412.561L136.801 412.561L136.801 418.276L147.955 418.276L147.955 423.632C154.374 423.928 165.676 423.949 173.421 423.78L175.526 423.78L175.526 423.717C178.388 423.632 180.535 423.506 181.335 423.358L181.335 418.297L186.68 418.297L186.68 418.149L192.363 418.149L192.363 412.688L197.814 412.688L197.814 412.54L197.94 412.54L197.94 407.205L203.286 407.205L203.286 406.931L203.433 406.931L203.433 401.638L209.032 401.638L209.032 407.142L214.63 407.142L214.63 412.625L220.039 412.625L220.102 412.625L220.102 418.234L231.256 418.234L231.256 423.653L270.171 423.653L270.171 418.065L275.643 418.065L275.643 412.582L281.242 412.582L281.242 401.406L286.629 401.406L286.629 379.095C286.629 377.281 286.629 375.51 286.629 373.654L281.284 373.654L281.284 362.604L275.685 362.604L275.685 357.101L264.425 357.101L264.425 357.079L258.953 357.079L258.953 357.101L253.545 357.101L253.545 362.415L248.03 362.415L248.03 362.541L247.946 362.541L247.946 373.718L253.502 373.718L253.502 379.2L264.383 379.2L264.383 395.839L259.017 395.839L259.017 401.343L247.757 401.343L236.771 401.343L236.771 396.028C236.771 396.028 236.75 395.923 236.75 395.86L231.299 395.86L231.299 390.419L225.7 390.419L225.7 379.243L220.228 379.243L220.228 362.372L225.784 362.372L225.784 351.323L231.278 351.323L231.278 345.713L236.75 345.713L236.75 340.273L242.306 340.273L242.306 340.23C243.274 340.273 243.842 340.125 243.716 338.965C243.548 337.615 244.032 336.835 245.547 336.688C246.347 336.603 247.652 336.118 247.757 335.633C247.841 335.148 248.009 334.916 248.22 334.79L270.15 334.79L270.15 340.294L275.748 340.294L275.748 345.903L281.22 345.903L281.22 351.386L286.629 351.386L286.629 356.805L286.819 356.805L286.819 356.995L292.207 356.995L292.207 367.982L292.417 367.982L292.417 373.739L297.742 373.739L297.742 406.973L292.354 406.973L292.354 412.603L292.27 412.603L292.27 418.023L286.882 418.023L286.882 418.213L286.777 418.213C286.777 420.09 286.777 421.861 286.777 423.611L281.305 423.611L281.305 429.221L275.706 429.221L275.706 434.767L236.918 434.767L236.918 429.368L231.109 429.368L231.109 429.221L220.207 429.221L220.207 423.864L209.053 423.864L209.053 429.157L203.581 429.157L203.581 423.822L203.391 423.822L203.391 423.801L197.793 423.801L197.793 423.822L192.426 423.822L192.426 429.221L175.715 429.221L175.715 434.767L136.927 434.767L136.927 429.368L136.674 429.368L136.674 429.199L136.653 429.347ZM320.177 429.516L320.072 429.516L320.072 434.809L309.065 434.809L309.065 423.864L314.516 423.864L314.516 423.738L314.621 423.738L314.621 407.247L320.114 407.247L320.114 404.906C320.198 403.789 320.261 402.713 320.346 401.68L322.577 401.68C323.524 401.68 324.513 401.68 325.586 401.701L325.586 407.1L325.691 407.1L325.691 407.184L331.058 407.184L331.058 412.688L325.776 412.688L325.776 418.339L325.649 418.339C325.649 420.3 325.67 422.135 325.649 423.97C325.628 425.72 325.755 427.47 325.544 429.305L320.177 429.305L320.177 429.516ZM320.177 195.695L325.544 195.695C325.755 197.53 325.607 199.28 325.649 201.03C325.691 202.865 325.649 204.7 325.649 206.661L325.776 206.661L325.776 212.312L331.058 212.312L331.058 217.816L325.691 217.816L325.691 217.9L325.586 217.9L325.586 223.299C324.534 223.299 323.545 223.299 322.577 223.32L320.346 223.32C320.282 222.287 320.198 221.211 320.114 220.094L320.114 217.753L314.621 217.753L314.621 201.262L314.516 201.262L314.516 201.136L309.065 201.136L309.065 190.191L320.072 190.191L320.072 195.484L320.177 195.484L320.177 195.695ZM292.207 457.246L292.438 457.246L292.438 457.352L297.742 457.352L297.742 468.254L292.396 468.254L292.396 473.758L281.389 473.758C281.389 473.758 281.263 473.631 281.305 473.652L281.305 451.742C281.62 451.7 281.978 451.721 282.315 451.7L292.186 451.7L292.186 457.225L292.207 457.246ZM125.562 473.8L120.153 473.8L120.153 468.38L114.702 468.38L114.702 462.919L120.006 462.919L120.006 462.645L120.132 462.645C120.132 460.683 120.132 458.849 120.132 457.014C120.132 455.222 120.069 453.408 120.174 451.763C120.174 451.763 120.216 451.763 120.237 451.763L131.076 451.763L131.076 473.842L125.583 473.842L125.583 473.779L125.562 473.8ZM258.869 490.48L242.369 490.48L242.369 485.103L236.686 485.103L236.686 484.955L231.235 484.955L231.235 479.62L225.532 479.62L186.743 479.62L181.229 479.62L181.229 484.955L175.757 484.955L175.757 485.103L175.589 485.103L175.589 490.523L153.596 490.523L153.596 463.34C153.869 462.919 154.395 462.855 154.648 462.497C155.027 461.928 154.858 460.979 154.985 460.219C154.985 460.114 155.363 460.093 155.553 459.988C156.332 459.566 157.068 459.102 158.057 459.249C158.331 459.292 158.983 458.807 158.962 458.659C158.815 457.731 159.089 457.394 159.636 457.267L175.652 457.267L175.652 457.204C176.641 457.204 177.63 457.204 178.599 457.204C179.482 457.204 180.366 457.141 181.356 457.098L181.356 451.679L192.216 451.679L192.216 451.616L197.94 451.616L197.94 446.175L214.651 446.175L214.651 451.763L231.362 451.763L231.362 457.352L258.869 457.352L258.869 462.666L259.038 462.666L259.038 468.423L264.425 468.423L264.425 484.976L259.08 484.976L259.08 485.166L258.869 485.166L258.869 490.48ZM264.447 518.021C264.447 518.021 264.447 518.211 264.425 518.316L236.897 518.316L236.897 513.002L264.468 513.002L264.468 518.042L264.447 518.021ZM153.617 512.96L175.631 512.96L175.631 512.77L181.25 512.77L181.25 507.372L186.659 507.372L186.659 507.287L186.849 507.287L186.849 501.91L192.237 501.91L192.237 512.897L181.356 512.897C181.292 514.204 181.229 515.533 181.145 517.072C180.219 517.072 179.293 516.967 178.43 517.093C177.399 517.262 175.841 516.228 175.442 518.253C175.442 518.274 175.378 518.295 175.315 518.316L153.617 518.316L153.617 512.939L153.617 512.96ZM197.898 518.337L192.342 518.337L192.342 512.897L192.426 512.897L192.426 512.981L197.898 512.981L197.898 518.316L203.475 518.316L203.475 513.002L214.504 513.002L214.504 523.925L203.496 523.925L203.496 518.464L197.898 518.464L197.898 518.316L197.898 518.337ZM225.763 507.435L231.214 507.435L231.214 512.897C229.425 512.897 227.615 512.897 225.763 512.897L225.763 518.337L220.27 518.337L220.27 501.931L225.574 501.931L225.574 507.224L225.784 507.224L225.784 507.435L225.763 507.435ZM353.325 318.025L347.748 318.025L347.748 323.381C345.938 323.466 344.107 323.571 342.297 323.613C342.255 323.613 342.213 323.613 342.171 323.613L342.171 323.592L336.72 323.592L336.72 318.151C336.72 318.151 336.699 318.046 336.699 317.983L331.332 317.983L331.332 306.975L336.699 306.975L336.699 306.806C336.72 304.993 336.72 303.285 336.72 301.366L342.171 301.366L342.171 301.345C342.171 301.345 342.255 301.345 342.297 301.345C344.107 301.387 345.938 301.492 347.748 301.577L347.748 306.933L353.325 306.933L353.325 318.004L353.325 318.025Z" fill="#E95A32"/>
</g>
<defs>
<clipPath id="clip0_104_751">
<rect width="313" height="738" fill="white"/>
</clipPath>
</defs>
</svg>
